<svg width="80" height="80" viewBox="0 0 80 80" fill="none" xmlns="http://www.w3.org/2000/svg">
<path d="M54.9333 34.6999C53.6333 35.9999 51.4666 35.9999 50.1666 34.6999L35.2666 19.8332L11.7666 43.2999L9.5666 41.1999C5.6666 37.2999 5.6666 30.9665 9.5666 27.0665L23.6999 12.9332C27.5999 9.03321 33.9333 9.03321 37.8333 12.9332L54.9333 29.9999C56.2333 31.2999 56.2333 33.3999 54.9333 34.6999ZM57.2666 27.6332C59.8666 30.2332 59.8666 34.4665 57.2666 37.0665C53.0333 41.2999 48.5666 37.7999 47.8333 37.0665L35.2999 24.5332L16.7333 43.0999C15.4333 44.3999 15.4333 46.4999 16.7333 47.7999C18.0333 49.0999 20.1333 49.0999 21.4666 47.7999L36.8666 32.3999L39.2333 34.7665L23.8333 50.1665C22.5333 51.4665 22.5333 53.5665 23.8333 54.8665C25.1333 56.1665 27.2333 56.1665 28.5666 54.8665L43.9666 39.4665L46.3333 41.8332L30.9333 57.2332C29.6333 58.5332 29.6333 60.6332 30.9333 61.9332C32.2333 63.2332 34.3333 63.2332 35.6333 61.9332L51.0333 46.5332L53.3999 48.8999L37.9999 64.2999C36.6999 65.5999 36.6999 67.6999 37.9999 68.9999C39.2999 70.2999 41.3999 70.2999 42.6999 68.9999L70.4333 41.1999C74.3333 37.2999 74.3333 30.9665 70.4333 27.0665L56.2999 12.9332C52.4666 9.09988 46.2666 9.03321 42.3666 12.7332L57.2666 27.6332Z" fill="#007940"/>
</svg>
