<svg width="225" height="114" viewBox="0 0 225 114" fill="none" xmlns="http://www.w3.org/2000/svg">
<path d="M66.392 69.5193H45.362C46.9497 32.5295 77.3744 3.0396 114.661 3.0396C151.948 3.0396 182.373 32.5295 183.961 69.5193L162.931 69.5193H66.392Z" fill="#D12229" stroke="black" stroke-width="6.0792"/>
<path d="M74.2078 69.5194H57.2278C58.799 39.1068 83.8118 14.96 114.404 14.96C144.995 14.96 170.008 39.1068 171.579 69.5194H154.599H74.2078Z" fill="#F68A1E" stroke="black" stroke-width="6.0792"/>
<path d="M83.4839 69.5195H71.1671C72.7185 46.841 91.4982 28.9537 114.404 28.9537C137.309 28.9537 156.089 46.841 157.64 69.5195H145.324H83.4839Z" fill="#FDE01A" stroke="black" stroke-width="6.0792"/>
<path d="M92.3302 69.5194H84.6109C86.1135 54.2753 98.7969 42.4288 114.146 42.4288C129.495 42.4288 142.178 54.2753 143.681 69.5194H135.962H92.3302Z" fill="#008018" stroke="black" stroke-width="6.0792"/>
<path d="M99.8026 69.5194H96.05C97.4881 60.8982 104.94 54.3492 113.888 54.3492C122.837 54.3492 130.289 60.8982 131.727 69.5194H127.974H99.8026Z" fill="#24408E" stroke="black" stroke-width="6.0792"/>
<path d="M121.065 69.5195H106.711C107.892 66.6908 110.669 64.7149 113.888 64.7149C117.108 64.7149 119.885 66.6908 121.065 69.5195Z" fill="#C7B9FF" stroke="black" stroke-width="6.0792"/>
<path d="M66.0861 61.0199L65.4583 62.8157C65.1141 63.8003 65.7477 64.8578 66.7766 65.0163C67.0613 65.0602 67.3299 65.1775 67.556 65.3569L68.5226 66.1235C69.4478 66.8573 70.1502 67.8358 70.5505 68.9483L70.5712 69.0057C71.1391 70.5839 71.0821 72.3194 70.412 73.8543L70.3467 74.004C69.6211 75.6659 68.2761 76.9762 66.5989 77.6551L65.13 78.2497C63.3717 78.9615 61.9694 80.3465 61.2326 82.099L61.2073 82.1592C60.6499 83.485 59.7068 84.6108 58.5011 85.3897L58.2258 85.5675C56.7305 86.5335 54.9135 86.8654 53.1724 86.4907L51.7853 86.1921C50.939 86.01 50.1979 85.5003 49.723 84.7739L48.5952 83.0487C47.806 81.8414 46.0366 81.8593 45.2763 83.0822C45.139 83.303 44.9595 83.4944 44.7481 83.6453L43.1531 84.7834C41.3072 86.1005 38.9169 86.3797 36.8147 85.5239L35.6198 85.0375C34.7657 84.6897 34.0821 84.0184 33.7172 83.1692L33.0308 81.5713C32.373 80.0402 30.3787 79.6643 29.2166 80.8524C28.7882 81.2905 28.2052 81.5419 27.593 81.5527L24.7179 81.6033C22.8509 81.6361 21.0601 80.8544 19.8096 79.4608L19.5967 79.2234C18.5103 78.0126 17.986 76.3972 18.1543 74.7788C18.355 72.8487 17.5701 70.9457 16.0679 69.7196L15.9552 69.6276C14.8325 68.7113 14.077 67.4193 13.8282 65.9899L13.7718 65.6656C13.51 64.1616 13.7531 62.614 14.4629 61.2654L14.8508 60.5285C15.6486 59.0128 17.102 57.9544 18.7865 57.6624L22.3488 57.045C23.387 56.8651 24.0815 55.8747 23.9002 54.833C23.8525 54.5588 23.8649 54.2775 23.9367 54.0088L24.273 52.7491C24.699 51.1535 25.6963 49.7724 27.0744 48.8695C28.8278 47.7208 31.0175 47.4624 32.9922 48.171L33.6889 48.421C34.1024 48.5694 34.4836 48.7962 34.8118 49.089L35.089 49.3364C36.5911 50.6765 38.9429 50.2689 39.9041 48.5019C40.2258 47.9105 40.7292 47.4394 41.3396 47.1585L42.8858 46.447C44.2499 45.8194 45.788 45.6798 47.244 46.0514C48.9518 46.4874 50.4149 47.5924 51.3051 49.1188L51.9634 50.2475C52.0856 50.4571 52.1865 50.6784 52.2646 50.9082L52.4577 51.4767C53.1162 53.4147 55.4136 54.2197 57.1272 53.1127C57.8236 52.6628 58.6699 52.5082 59.4808 52.6828L61.3032 53.0749C62.8046 53.3981 64.1267 54.2858 64.9975 55.5556C65.4877 56.2704 65.8184 57.0827 65.9671 57.9369L66.2198 59.3889C66.315 59.9353 66.2689 60.4969 66.0861 61.0199Z" fill="white" stroke="black" stroke-width="1.788"/>
<path d="M53.5207 54.3325L52.4794 50.732C51.798 48.3762 49.9676 46.5261 47.6237 45.8241V45.8241C43.8289 44.6876 39.8469 46.8472 38.7296 50.6478L38.1294 52.6896" stroke="black" stroke-width="6.0792"/>
<path d="M46.7276 79.9968L48.5178 83.2852C49.6903 85.439 51.8744 86.8497 54.3124 87.0279V87.0279C58.2619 87.3166 61.6851 84.3419 61.9584 80.3837L62.1042 78.2712" stroke="black" stroke-width="6"/>
<path d="M62.3919 79.4354L66.0287 78.6024C68.4119 78.0565 70.3485 76.3295 71.1669 74.0202V74.0202C72.4931 70.2781 70.5389 66.1528 66.8021 64.806L64.8141 64.0895" stroke="black" stroke-width="6"/>
<path d="M64.6215 65.576L65.8248 62.0332C66.6132 59.7119 66.1708 57.1429 64.651 55.2172V55.2172C62.1885 52.0969 57.6837 51.568 54.5892 54.0361L52.9414 55.3503" stroke="black" stroke-width="6"/>
<path d="M31.424 77.6599L32.4728 81.2581C33.159 83.6125 34.9933 85.4588 37.3386 86.1559V86.1559C41.1357 87.2845 45.1132 85.1165 46.2226 81.3136L46.8186 79.2707" stroke="black" stroke-width="6"/>
<path d="M18.3117 70.6518L17.9909 74.3853C17.7809 76.8285 18.8251 79.2164 20.7608 80.7197V80.7197C23.895 83.1538 28.3879 82.5822 30.7959 79.4431L32.0884 77.7581" stroke="black" stroke-width="6"/>
<path d="M24.103 56.9237L20.3719 56.9011C17.9269 56.8863 15.6486 58.1233 14.327 60.1831V60.1831C12.1854 63.521 13.1513 67.9834 16.4844 70.1502L18.2581 71.3032" stroke="black" stroke-width="6"/>
<path d="M38.7941 52.547L36.3181 49.7171C34.7047 47.8731 32.2655 46.982 29.8511 47.3545V47.3545C25.9515 47.9562 23.2828 51.6158 23.8904 55.5285L24.2256 57.6867" stroke="black" stroke-width="6"/>
<path d="M160.163 61.0199L160.791 62.8157C161.135 63.8003 160.501 64.8578 159.472 65.0163C159.188 65.0602 158.919 65.1775 158.693 65.3569L157.726 66.1235C156.801 66.8573 156.099 67.8358 155.698 68.9483L155.678 69.0057C155.11 70.5839 155.167 72.3194 155.837 73.8543L155.902 74.004C156.628 75.6659 157.973 76.9762 159.65 77.6551L161.119 78.2497C162.877 78.9615 164.28 80.3465 165.016 82.099L165.042 82.1592C165.599 83.485 166.542 84.6108 167.748 85.3896L168.023 85.5675C169.519 86.5335 171.335 86.8654 173.077 86.4906L174.464 86.1921C175.31 86.01 176.051 85.5003 176.526 84.7739L177.654 83.0487C178.443 81.8414 180.212 81.8593 180.973 83.0822C181.11 83.303 181.29 83.4944 181.501 83.6453L183.096 84.7834C184.942 86.1005 187.332 86.3797 189.434 85.5239L190.629 85.0375C191.483 84.6897 192.167 84.0184 192.532 83.1692L193.218 81.5713C193.876 80.0402 195.87 79.6643 197.032 80.8524C197.461 81.2905 198.044 81.5419 198.656 81.5527L201.531 81.6033C203.398 81.6361 205.189 80.8544 206.439 79.4608L206.652 79.2234C207.739 78.0126 208.263 76.3972 208.095 74.7788C207.894 72.8487 208.679 70.9457 210.181 69.7196L210.294 69.6276C211.417 68.7113 212.172 67.4193 212.421 65.9899L212.477 65.6656C212.739 64.1616 212.496 62.614 211.786 61.2654L211.398 60.5285C210.6 59.0128 209.147 57.9544 207.462 57.6624L203.9 57.045C202.862 56.8651 202.167 55.8747 202.349 54.833C202.397 54.5588 202.384 54.2775 202.312 54.0088L201.976 52.7491C201.55 51.1535 200.553 49.7724 199.175 48.8695C197.421 47.7208 195.231 47.4624 193.257 48.171L192.56 48.421C192.147 48.5694 191.765 48.7962 191.437 49.089L191.16 49.3364C189.658 50.6765 187.306 50.2689 186.345 48.5019C186.023 47.9105 185.52 47.4394 184.909 47.1585L183.363 46.447C181.999 45.8194 180.461 45.6798 179.005 46.0514C177.297 46.4874 175.834 47.5924 174.944 49.1188L174.286 50.2475C174.163 50.4571 174.062 50.6784 173.984 50.9082L173.791 51.4767C173.133 53.4147 170.835 54.2197 169.122 53.1127C168.425 52.6628 167.579 52.5082 166.768 52.6828L164.946 53.0749C163.444 53.3981 162.122 54.2858 161.252 55.5556C160.761 56.2704 160.431 57.0827 160.282 57.9369L160.029 59.3889C159.934 59.9353 159.98 60.4969 160.163 61.0199Z" fill="white" stroke="black" stroke-width="1.788"/>
<path d="M172.728 54.3325L173.77 50.732C174.451 48.3762 176.281 46.5261 178.625 45.8241V45.8241C182.42 44.6876 186.402 46.8472 187.519 50.6478L188.12 52.6896" stroke="black" stroke-width="6.0792"/>
<path d="M179.521 79.9968L177.731 83.2852C176.559 85.439 174.375 86.8497 171.937 87.0279V87.0279C167.987 87.3166 164.564 84.3419 164.291 80.3837L164.145 78.2712" stroke="black" stroke-width="6"/>
<path d="M163.858 79.4354L160.221 78.6024C157.838 78.0565 155.901 76.3295 155.083 74.0202V74.0202C153.756 70.2781 155.711 66.1528 159.447 64.806L161.435 64.0895" stroke="black" stroke-width="6"/>
<path d="M161.628 65.576L160.424 62.0332C159.636 59.7119 160.078 57.1429 161.598 55.2172V55.2172C164.061 52.0969 168.565 51.568 171.66 54.0361L173.308 55.3503" stroke="black" stroke-width="6"/>
<path d="M194.825 77.6599L193.776 81.2581C193.09 83.6125 191.256 85.4588 188.91 86.1559V86.1559C185.113 87.2845 181.136 85.1165 180.026 81.3136L179.43 79.2707" stroke="black" stroke-width="6"/>
<path d="M207.937 70.6518L208.258 74.3853C208.468 76.8285 207.424 79.2164 205.488 80.7197V80.7197C202.354 83.1538 197.861 82.5822 195.453 79.4431L194.161 77.7581" stroke="black" stroke-width="6"/>
<path d="M202.146 56.9237L205.877 56.9011C208.322 56.8863 210.6 58.1233 211.922 60.1831V60.1831C214.064 63.521 213.098 67.9834 209.765 70.1502L207.991 71.3032" stroke="black" stroke-width="6"/>
<path d="M187.455 52.547L189.931 49.7171C191.544 47.8731 193.984 46.982 196.398 47.3545V47.3545C200.298 47.9562 202.966 51.6158 202.359 55.5285L202.023 57.6867" stroke="black" stroke-width="6"/>
</svg>
