<svg width="80" height="80" viewBox="0 0 80 80" fill="none" xmlns="http://www.w3.org/2000/svg">
<path d="M57.3673 30.0001L42.7673 8.1334C42.134 7.20007 41.0673 6.7334 40.0007 6.7334C38.934 6.7334 37.8673 7.20007 37.234 8.16673L22.634 30.0001H6.66732C4.83398 30.0001 3.33398 31.5001 3.33398 33.3334C3.33398 33.6334 3.36732 33.9334 3.46732 34.2334L11.934 65.1334C12.7007 67.9334 15.2673 70.0001 18.334 70.0001H61.6673C64.734 70.0001 67.3007 67.9334 68.1007 65.1334L76.5673 34.2334L76.6673 33.3334C76.6673 31.5001 75.1673 30.0001 73.334 30.0001H57.3673ZM30.0007 30.0001L40.0007 15.3334L50.0007 30.0001H30.0007ZM40.0007 56.6667C36.334 56.6667 33.334 53.6667 33.334 50.0001C33.334 46.3334 36.334 43.3334 40.0007 43.3334C43.6673 43.3334 46.6673 46.3334 46.6673 50.0001C46.6673 53.6667 43.6673 56.6667 40.0007 56.6667Z" fill="#007940"/>
</svg>
