<svg width="193" height="185" viewBox="0 0 193 185" fill="none" xmlns="http://www.w3.org/2000/svg">
<mask id="mask0_851_206" style="mask-type:alpha" maskUnits="userSpaceOnUse" x="33" y="39" width="127" height="107">
<path d="M97.2625 145.23L80.1667 135.723C79.167 135.166 70.1061 130.061 60.8503 122.617C42.7153 108.038 33.4538 92.0583 33.3291 75.1274C33.1872 55.8629 48.6831 40.1312 67.9462 39.9833C79.7526 39.8927 90.2326 45.6781 96.6078 54.6151C102.919 46.1896 112.948 40.6969 124.285 40.6099C143.548 40.462 159.274 55.9542 159.416 75.2186C159.54 92.1178 150.672 108.052 133.056 122.583C124.087 129.982 115.259 135.041 114.287 135.594L97.2625 145.23Z" fill="#D12229"/>
</mask>
<g mask="url(#mask0_851_206)">
<rect width="12.9205" height="183.911" transform="matrix(0.999898 -0.00831769 0.00811042 1.00003 31.5938 -4.24365)" fill="black"/>
<rect width="12.9205" height="183.911" transform="matrix(0.999898 -0.00831769 0.00811042 1.00003 44.502 -4.3501)" fill="#794D10"/>
<rect width="12.9205" height="183.911" transform="matrix(0.999898 -0.00831767 0.00811043 1.00003 57.4111 -4.45654)" fill="#ED75B2"/>
<rect width="12.9205" height="183.911" transform="matrix(0.999898 -0.00831767 0.00811043 1.00003 70.3193 -4.56348)" fill="#D12229"/>
<rect width="12.9205" height="183.911" transform="matrix(0.999898 -0.00831769 0.00811043 1.00003 83.2285 -4.66992)" fill="#F68A1E"/>
<rect width="12.9205" height="183.911" transform="matrix(0.999898 -0.00831769 0.00811043 1.00003 96.1377 -4.77686)" fill="#FDE01A"/>
<rect width="12.9205" height="183.911" transform="matrix(0.999898 -0.00831769 0.00811043 1.00003 109.046 -4.8833)" fill="#007940"/>
<rect width="12.9205" height="183.911" transform="matrix(0.999898 -0.00831769 0.00811043 1.00003 121.955 -4.99023)" fill="#00C0C0"/>
<rect width="12.9205" height="183.911" transform="matrix(0.999898 -0.00831769 0.00811043 1.00003 134.864 -5.09668)" fill="#24408E"/>
<rect width="12.9205" height="183.911" transform="matrix(0.999898 -0.00831766 0.00811045 1.00003 147.772 -5.20361)" fill="#732982"/>
</g>
<path d="M62.7378 120.28L62.7374 120.279C45.0269 106.037 36.4513 90.823 36.3338 75.0947C36.2022 57.4833 50.3625 43.1051 67.9658 42.9718C78.7526 42.8902 88.329 48.1742 94.161 56.3512L96.5444 59.693L99.0048 56.407C104.778 48.697 113.941 43.6831 124.298 43.6047C141.902 43.4714 156.275 57.6337 156.407 75.2451C156.524 90.9529 148.322 106.106 131.146 120.277L131.146 120.277C122.382 127.509 113.736 132.465 112.809 132.992C112.808 132.993 112.808 132.993 112.807 132.994L97.2554 141.798L81.6332 133.106C81.6331 133.106 81.633 133.106 81.6329 133.106C80.692 132.582 71.8004 127.57 62.7378 120.28Z" stroke="black" stroke-width="6"/>
</svg>
