<svg width="80" height="80" viewBox="0 0 80 80" fill="none" xmlns="http://www.w3.org/2000/svg">
<path d="M60.0003 13.3335L66.667 23.3335H56.667L50.0003 13.3335H43.3337L50.0003 23.3335H40.0003L33.3337 13.3335H26.667L33.3337 23.3335H23.3337L16.667 13.3335H13.3337C9.66699 13.3335 6.70033 16.3335 6.70033 20.0002L6.66699 60.0002C6.66699 63.6668 9.66699 66.6668 13.3337 66.6668H66.667C70.3337 66.6668 73.3337 63.6668 73.3337 60.0002V13.3335H60.0003ZM37.5003 50.8335L33.3337 60.0002L29.167 50.8335L20.0003 46.6668L29.167 42.5002L33.3337 33.3335L37.5003 42.5002L46.667 46.6668L37.5003 50.8335ZM56.467 39.8002L53.3337 46.6668L50.2003 39.8002L43.3337 36.6668L50.2003 33.5335L53.3337 26.6668L56.467 33.5335L63.3337 36.6668L56.467 39.8002Z" fill="#702283"/>
</svg>
