<svg width="80" height="80" viewBox="0 0 80 80" fill="none" xmlns="http://www.w3.org/2000/svg">
<path fill-rule="evenodd" clip-rule="evenodd" d="M66.667 10H13.3337C9.66699 10 6.66699 13 6.66699 16.6667V63.3333C6.66699 67 9.66699 70 13.3337 70H66.667C70.3337 70 73.3337 67 73.3337 63.3333V16.6667C73.3337 13 70.3337 10 66.667 10ZM33.3337 56.6667H16.667V50H33.3337V56.6667ZM33.3337 43.3333H16.667V36.6667H33.3337V43.3333ZM33.3337 30H16.667V23.3333H33.3337V30ZM49.4003 50L40.0003 40.5333L44.7003 35.8333L49.4003 40.5667L59.967 30L64.7003 34.7333L49.4003 50Z" fill="#007940"/>
</svg>
