<svg width="80" height="80" viewBox="0 0 80 80" fill="none" xmlns="http://www.w3.org/2000/svg">
<path d="M54.1333 45.5C50.2333 43.7667 45.4333 42.5 40 42.5C34.5667 42.5 29.7667 43.8 25.8667 45.5C22.2667 47.1 20 50.7 20 54.6333V60H60V54.6333C60 50.7 57.7333 47.1 54.1333 45.5Z" fill="#007940"/>
<path d="M4.06667 48.5998C1.6 49.6665 0 52.0665 0 54.7665V59.9998H15V54.6332C15 51.8665 15.7667 49.2665 17.1 46.9998C15.8667 46.7998 14.6333 46.6665 13.3333 46.6665C10.0333 46.6665 6.9 47.3665 4.06667 48.5998Z" fill="#007940"/>
<path d="M75.9337 48.5998C73.1004 47.3665 69.9671 46.6665 66.6671 46.6665C65.3671 46.6665 64.1337 46.7998 62.9004 46.9998C64.2337 49.2665 65.0004 51.8665 65.0004 54.6332V59.9998H80.0004V54.7665C80.0004 52.0665 78.4004 49.6665 75.9337 48.5998Z" fill="#007940"/>
<path d="M40 40C45.5333 40 50 35.5333 50 30C50 24.4667 45.5333 20 40 20C34.4667 20 30 24.4667 30 30C30 35.5333 34.4667 40 40 40Z" fill="#007940"/>
<path d="M13.333 28.3227L4.98926 36.6665L13.333 45.0103L21.6768 36.6665L13.333 28.3227Z" fill="#007940"/>
<path d="M66.6663 30L58.333 43.3333H74.9997L66.6663 30Z" fill="#007940"/>
</svg>
