<svg width="80" height="80" viewBox="0 0 80 80" fill="none" xmlns="http://www.w3.org/2000/svg">
<path d="M21.0664 43.367C24.2664 43.4337 27.2331 45.0337 29.2331 47.8337C31.6664 51.267 35.6997 53.3337 39.9997 53.3337C44.2997 53.3337 48.3331 51.267 50.7664 47.8003C52.7664 45.0003 55.7331 43.4003 58.9331 43.3337C56.5331 39.267 46.9331 36.667 39.9997 36.667C33.0997 36.667 23.4664 39.267 21.0664 43.367Z" fill="#007940"/>
<path d="M13.333 43.3335C18.8663 43.3335 23.333 38.8668 23.333 33.3335C23.333 27.8002 18.8663 23.3335 13.333 23.3335C7.79967 23.3335 3.33301 27.8002 3.33301 33.3335C3.33301 38.8668 7.79967 43.3335 13.333 43.3335Z" fill="#007940"/>
<path d="M66.666 43.3335C72.1993 43.3335 76.666 38.8668 76.666 33.3335C76.666 27.8002 72.1993 23.3335 66.666 23.3335C61.1327 23.3335 56.666 27.8002 56.666 33.3335C56.666 38.8668 61.1327 43.3335 66.666 43.3335Z" fill="#007940"/>
<path d="M40 33.3335C45.5333 33.3335 50 28.8668 50 23.3335C50 17.8002 45.5333 13.3335 40 13.3335C34.4667 13.3335 30 17.8002 30 23.3335C30 28.8668 34.4667 33.3335 40 33.3335Z" fill="#007940"/>
<path d="M69.9997 46.667H59.0997C56.533 46.667 54.5997 48.167 53.4997 49.7337C53.3663 49.9337 48.9663 56.667 39.9997 56.667C35.233 56.667 29.8997 54.5337 26.4997 49.7337C25.1997 47.9003 23.1663 46.667 20.8997 46.667H9.99967C6.33301 46.667 3.33301 49.667 3.33301 53.3337V66.667H26.6663V59.1337C30.4997 61.8003 35.133 63.3337 39.9997 63.3337C44.8663 63.3337 49.4997 61.8003 53.333 59.1337V66.667H76.6663V53.3337C76.6663 49.667 73.6663 46.667 69.9997 46.667Z" fill="#007940"/>
</svg>
