<svg width="71" height="68" viewBox="0 0 71 68" fill="none" xmlns="http://www.w3.org/2000/svg">
<path d="M0.303528 34.0983C0.303528 52.4464 15.9627 67.3206 35.2792 67.3206C54.5957 67.3206 70.2549 52.4464 70.2549 34.0983C70.2549 15.7501 54.5957 0.875977 35.2792 0.875977C15.9627 0.875977 0.303528 15.7501 0.303528 34.0983ZM56.2646 34.0983C56.2646 45.1072 46.8691 54.0316 35.2792 54.0316C23.6893 54.0316 14.2938 45.1072 14.2938 34.0983C14.2938 23.0894 23.6893 14.1649 35.2792 14.1649C46.8691 14.1649 56.2646 23.0894 56.2646 34.0983Z" fill="#FFE7F0"/>
<path opacity="0.2" d="M35.2794 0.876099C42.7243 0.876099 49.975 3.13261 55.9764 7.31733C61.9779 11.502 66.417 17.3966 68.6479 24.1433C70.8788 30.8901 70.785 38.137 68.3802 44.8296C65.9754 51.5222 61.3851 57.3114 55.2772 61.3547L47.2781 50.4522C50.9428 48.0262 53.697 44.5527 55.1399 40.5371C56.5828 36.5216 56.639 32.1734 55.3005 28.1254C53.962 24.0773 51.2985 20.5406 47.6976 18.0298C44.0967 15.519 39.7463 14.165 35.2794 14.165V0.876099Z" fill="#FF4086"/>
<path d="M0.303533 34.0983C0.303532 52.4464 15.9627 67.3205 35.2792 67.3205C54.5957 67.3205 70.2549 52.4464 70.2549 34.0983C70.2549 15.7501 54.5957 0.875975 35.2792 0.875973C15.9627 0.875971 0.303534 15.7501 0.303533 34.0983ZM56.2646 34.0983C56.2646 45.1072 46.8691 54.0316 35.2792 54.0316C23.6893 54.0316 14.2938 45.1072 14.2938 34.0983C14.2938 23.0894 23.6893 14.1649 35.2792 14.1649C46.8691 14.1649 56.2646 23.0894 56.2646 34.0983Z" fill="#FF4086"/>
</svg>
