<svg width="71" height="68" viewBox="0 0 71 68" fill="none" xmlns="http://www.w3.org/2000/svg">
<path d="M0.61792 34.0983C0.61792 52.4464 16.2771 67.3206 35.5936 67.3206C54.9102 67.3206 70.5693 52.4464 70.5693 34.0983C70.5693 15.7501 54.9102 0.875977 35.5936 0.875977C16.2771 0.875977 0.61792 15.7501 0.61792 34.0983ZM56.5791 34.0983C56.5791 45.1072 47.1836 54.0316 35.5936 54.0316C24.0037 54.0316 14.6082 45.1072 14.6082 34.0983C14.6082 23.0894 24.0037 14.1649 35.5936 14.1649C47.1836 14.1649 56.5791 23.0894 56.5791 34.0983Z" fill="#FFE7F0"/>
<path opacity="0.2" d="M35.5939 0.876099C43.0388 0.876099 50.2895 3.13261 56.2909 7.31733C62.2924 11.502 66.7315 17.3966 68.9624 24.1433C71.1933 30.8901 71.0995 38.137 68.6947 44.8296C66.2899 51.5222 61.6996 57.3114 55.5917 61.3547L47.5926 50.4522C51.2573 48.0262 54.0115 44.5527 55.4544 40.5371C56.8973 36.5216 56.9535 32.1734 55.615 28.1254C54.2765 24.0773 51.613 20.5406 48.0121 18.0298C44.4112 15.519 40.0608 14.165 35.5939 14.165V0.876099Z" fill="#FF4086"/>
<path d="M35.5936 0.875969C41.6113 0.875971 47.5272 2.35076 52.7693 5.15775C58.0114 7.96474 62.4024 12.009 65.5177 16.8994C68.633 21.7898 70.3672 27.361 70.5527 33.0743C70.7382 38.7876 69.3686 44.4497 66.5765 49.5132C63.7843 54.5766 59.664 58.8701 54.6139 61.9786C49.5638 65.087 43.7549 66.9052 37.7486 67.2574C31.7423 67.6096 25.742 66.4838 20.3278 63.989C14.9136 61.4941 10.2686 57.7145 6.842 53.0157L18.3426 45.4487C20.3986 48.268 23.1856 50.5358 26.4341 52.0327C29.6827 53.5296 33.2829 54.2051 36.8866 53.9938C40.4904 53.7824 43.9758 52.6915 47.0058 50.8264C50.0359 48.9614 52.508 46.3853 54.1833 43.3472C55.8586 40.3091 56.6804 36.9119 56.5691 33.4839C56.4578 30.0559 55.4173 26.7132 53.5481 23.7789C51.6789 20.8447 49.0443 18.4181 45.899 16.7339C42.7538 15.0498 39.2042 14.1649 35.5936 14.1649L35.5936 0.875969Z" fill="#FF4086"/>
</svg>
