<svg width="267" height="253" viewBox="0 0 267 253" fill="none" xmlns="http://www.w3.org/2000/svg">
<mask id="mask0_868_100" style="mask-type:alpha" maskUnits="userSpaceOnUse" x="45" y="53" width="176" height="147">
<path d="M135.341 199.816L111.422 186.842C110.024 186.083 97.3455 179.115 84.3617 168.898C58.9222 148.887 45.8039 126.801 45.3797 103.259C44.897 76.4715 66.2168 54.37 93.0072 53.8847C109.427 53.5873 124.089 61.4805 133.089 73.8158C141.741 62.0075 155.609 54.2239 171.377 53.9383C198.167 53.4531 220.269 74.7682 220.752 101.555C221.175 125.054 209.077 147.341 184.79 167.803C172.425 178.223 160.222 185.385 158.878 186.168L135.341 199.816Z" fill="#D12229"/>
</mask>
<g mask="url(#mask0_868_100)">
<rect width="17.9622" height="255.749" transform="matrix(0.999803 -0.0187873 0.0187257 0.999845 41.7939 -7.07031)" fill="black"/>
<rect width="17.9622" height="255.749" transform="matrix(0.999803 -0.0187873 0.0187257 0.999845 59.748 -7.40723)" fill="#794D10"/>
<rect width="17.9622" height="255.749" transform="matrix(0.999803 -0.0187873 0.0187257 0.999845 77.7031 -7.74463)" fill="#ED75B2"/>
<rect width="17.9622" height="255.749" transform="matrix(0.999803 -0.0187873 0.0187257 0.999845 95.6572 -8.08154)" fill="#D12229"/>
<rect width="17.9622" height="255.749" transform="matrix(0.999803 -0.0187873 0.0187258 0.999845 113.611 -8.41895)" fill="#F68A1E"/>
<rect width="17.9622" height="255.749" transform="matrix(0.999803 -0.0187873 0.0187257 0.999845 131.565 -8.75586)" fill="#FDE01A"/>
<rect width="17.9622" height="255.749" transform="matrix(0.999803 -0.0187873 0.0187257 0.999845 149.52 -9.09277)" fill="#007940"/>
<rect width="17.9622" height="255.749" transform="matrix(0.999803 -0.0187873 0.0187257 0.999845 167.475 -9.42969)" fill="#00C0C0"/>
<rect width="17.9622" height="255.749" transform="matrix(0.999803 -0.0187873 0.0187257 0.999845 185.429 -9.76709)" fill="#24408E"/>
<rect width="17.9622" height="255.749" transform="matrix(0.999803 -0.0187873 0.0187257 0.999845 203.383 -10.104)" fill="#732982"/>
</g>
<path d="M86.2206 166.541L86.2201 166.54C61.2084 146.864 48.785 125.538 48.3818 103.2C47.9281 78.0686 67.9277 57.3339 93.0608 56.8795C108.462 56.601 122.216 64.0015 130.664 75.5814L133.082 78.8963L135.507 75.5862C143.631 64.4996 156.639 57.203 171.428 56.9357C196.561 56.4813 217.296 76.4795 217.749 101.611C218.152 123.916 206.71 145.415 182.858 165.512L182.857 165.512C170.7 175.757 158.682 182.815 157.374 183.577C157.372 183.578 157.371 183.578 157.37 183.579L135.295 196.38L112.858 184.208C111.519 183.481 99.0105 176.606 86.2206 166.541Z" stroke="black" stroke-width="6"/>
</svg>
