<svg width="68" height="66" viewBox="0 0 68 66" fill="none" xmlns="http://www.w3.org/2000/svg">
<path d="M49 34C58.8 25.12 68 17.64 68 10.44C68 4.6 63.4 0 57.56 0C54.28 0 51.08 1.56 49 3.96C46.96 1.56 43.76 0 40.44 0C34.6 0 30 4.6 30 10.44C30 17.6 39.2 25.12 49 34ZM40.44 6C41.88 6 43.48 6.72 44.44 7.84L49 13.16L53.56 7.84C54.52 6.72 56.08 6 57.56 6C60.08 6 62 7.92 62 10.44C62 14.04 55.32 20.24 49 25.92C42.68 20.24 36 14 36 10.44C36 7.92 37.92 6 40.44 6Z" fill="#F7A70B"/>
<path d="M56 44H52C52 40.4 49.72 37.2 46.36 36L24 28H0V64H20V59.28L42 66L68 58V56C68 49.36 62.64 44 56 44ZM14 57.44V58H6V34H14V57.44ZM42 59.72L20 53V34H22.96L44.32 41.64C45.32 42 46 42.96 46 44H36.56L29.08 41.2L26.96 46.8L34.96 50H56C58.48 50 60.64 51.52 61.56 53.72L42 59.72Z" fill="#F7A70B"/>
</svg>
