<svg width="68" height="60" viewBox="0 0 68 60" fill="none" xmlns="http://www.w3.org/2000/svg">
<path d="M48.9333 24.6999C47.6333 25.9999 45.4666 25.9999 44.1666 24.6999L29.2666 9.83321L5.7666 33.2999L3.5666 31.1999C-0.333398 27.2999 -0.333398 20.9665 3.5666 17.0665L17.6999 2.93321C21.5999 -0.96679 27.9333 -0.96679 31.8333 2.93321L48.9333 19.9999C50.2333 21.2999 50.2333 23.3999 48.9333 24.6999ZM51.2666 17.6332C53.8666 20.2332 53.8666 24.4665 51.2666 27.0665C47.0333 31.2999 42.5666 27.7999 41.8333 27.0665L29.2999 14.5332L10.7333 33.0999C9.43327 34.3999 9.43327 36.4999 10.7333 37.7999C12.0333 39.0999 14.1333 39.0999 15.4666 37.7999L30.8666 22.3999L33.2333 24.7665L17.8333 40.1665C16.5333 41.4665 16.5333 43.5665 17.8333 44.8665C19.1333 46.1665 21.2333 46.1665 22.5666 44.8665L37.9666 29.4665L40.3333 31.8332L24.9333 47.2332C23.6333 48.5332 23.6333 50.6332 24.9333 51.9332C26.2333 53.2332 28.3333 53.2332 29.6333 51.9332L45.0333 36.5332L47.3999 38.8999L31.9999 54.2999C30.6999 55.5999 30.6999 57.6999 31.9999 58.9999C33.2999 60.2999 35.3999 60.2999 36.6999 58.9999L64.4333 31.1999C68.3333 27.2999 68.3333 20.9665 64.4333 17.0665L50.2999 2.93321C46.4666 -0.900124 40.2666 -0.966791 36.3666 2.73321L51.2666 17.6332Z" fill="#F7A70B"/>
</svg>
