<svg width="18" height="18" viewBox="0 0 18 18" fill="none" xmlns="http://www.w3.org/2000/svg">
<path d="M9.00188 6.66567C10.2872 6.66567 11.3362 7.71463 11.3362 9C11.3362 10.2854 10.2872 11.3343 9.00188 11.3343C7.71654 11.3343 6.6676 10.2854 6.6676 9C6.6676 7.71463 7.71654 6.66567 9.00188 6.66567ZM2.00078 9C2.00078 8.03335 1.99203 7.07545 2.04631 6.11055C2.1006 4.98979 2.35627 3.99512 3.1758 3.17556C3.99709 2.35426 4.99 2.10034 6.11073 2.04605C7.07737 1.99176 8.03525 2.00052 9.00013 2.00052C9.96677 2.00052 10.9246 1.99176 11.8895 2.04605C13.0103 2.10034 14.0049 2.35601 14.8245 3.17556C15.6457 3.99687 15.8997 4.98979 15.9539 6.11055C16.0082 7.0772 15.9995 8.0351 15.9995 9C15.9995 9.9649 16.0082 10.9246 15.9539 11.8895C15.8997 13.0102 15.644 14.0049 14.8245 14.8244C14.0032 15.6457 13.0103 15.8997 11.8895 15.9539C10.9229 16.0082 9.96502 15.9995 9.00013 15.9995C8.0335 15.9995 7.07562 16.0082 6.11073 15.9539C4.99 15.8997 3.99534 15.644 3.1758 14.8244C2.35451 14.0031 2.1006 13.0102 2.04631 11.8895C1.99027 10.9246 2.00078 9.96665 2.00078 9ZM9.00188 12.5917C10.9894 12.5917 12.5935 10.9876 12.5935 9C12.5935 7.01241 10.9894 5.40832 9.00188 5.40832C7.01433 5.40832 5.41027 7.01241 5.41027 9C5.41027 10.9876 7.01433 12.5917 9.00188 12.5917ZM5.26317 6.10004C5.72723 6.10004 6.10198 5.72529 6.10198 5.26122C6.10198 4.79716 5.72723 4.42241 5.26317 4.42241C4.79912 4.42241 4.42437 4.79716 4.42437 5.26122C4.42423 5.37142 4.44584 5.48056 4.48794 5.58239C4.53005 5.68422 4.59183 5.77675 4.66975 5.85467C4.74766 5.93258 4.84019 5.99437 4.94202 6.03647C5.04385 6.07858 5.15298 6.10018 5.26317 6.10004Z" fill="#FF4086"/>
</svg>
