<svg width="18" height="18" viewBox="0 0 18 18" fill="none" xmlns="http://www.w3.org/2000/svg">
<path fill-rule="evenodd" clip-rule="evenodd" d="M2 3.16964C2 2.85943 2.12323 2.56193 2.34258 2.34258C2.56193 2.12323 2.85943 2 3.16964 2H14.8291C14.9828 1.99975 15.1351 2.02982 15.2772 2.0885C15.4193 2.14717 15.5484 2.2333 15.6572 2.34194C15.7659 2.45059 15.8522 2.57962 15.911 2.72164C15.9698 2.86367 16.0001 3.01591 16 3.16964V14.8291C16.0002 14.9829 15.97 15.1351 15.9113 15.2772C15.8525 15.4193 15.7663 15.5484 15.6576 15.6572C15.549 15.766 15.4199 15.8522 15.2778 15.911C15.1358 15.9699 14.9835 16.0001 14.8297 16H3.16964C3.01598 16 2.86384 15.9697 2.72189 15.9109C2.57994 15.8521 2.45097 15.7659 2.34235 15.6572C2.23373 15.5485 2.14759 15.4195 2.08885 15.2775C2.03011 15.1355 1.99992 14.9834 2 14.8297V3.16964ZM7.54145 7.33782H9.43718V8.28982C9.71082 7.74255 10.4108 7.25 11.4627 7.25C13.4794 7.25 13.9573 8.34009 13.9573 10.3402V14.0451H11.9165V10.7958C11.9165 9.65673 11.6428 9.014 10.9479 9.014C9.98382 9.014 9.58291 9.707 9.58291 10.7958V14.0451H7.54145V7.33782ZM4.04145 13.9579H6.08291V7.25H4.04145V13.9579ZM6.375 5.06218C6.37885 5.23697 6.34775 5.41077 6.28352 5.57338C6.21929 5.73599 6.12322 5.88413 6.00097 6.00911C5.87871 6.13409 5.73272 6.23339 5.57156 6.30119C5.41041 6.36898 5.23733 6.4039 5.0625 6.4039C4.88767 6.4039 4.71459 6.36898 4.55344 6.30119C4.39228 6.23339 4.24629 6.13409 4.12403 6.00911C4.00178 5.88413 3.90571 5.73599 3.84148 5.57338C3.77725 5.41077 3.74615 5.23697 3.75 5.06218C3.75756 4.71909 3.89915 4.3926 4.14447 4.15262C4.38979 3.91264 4.71932 3.77827 5.0625 3.77827C5.40568 3.77827 5.73521 3.91264 5.98053 4.15262C6.22585 4.3926 6.36744 4.71909 6.375 5.06218Z" fill="#FF4086"/>
</svg>
