<svg width="18" height="18" viewBox="0 0 18 18" fill="none" xmlns="http://www.w3.org/2000/svg">
<path d="M14.6 3H3.4C2.76348 3 2.15303 3.25286 1.70294 3.70294C1.25286 4.15303 1 4.76348 1 5.4V13.4C1 14.0365 1.25286 14.647 1.70294 15.0971C2.15303 15.5471 2.76348 15.8 3.4 15.8H14.6C15.2365 15.8 15.847 15.5471 16.2971 15.0971C16.7471 14.647 17 14.0365 17 13.4V5.4C17 4.76348 16.7471 4.15303 16.2971 3.70294C15.847 3.25286 15.2365 3 14.6 3V3ZM14.6 4.6L9.4 8.176C9.27838 8.24621 9.14043 8.28318 9 8.28318C8.85957 8.28318 8.72162 8.24621 8.6 8.176L3.4 4.6H14.6Z" fill="#FF4086"/>
</svg>
