<svg width="65" height="56" viewBox="0 0 65 56" fill="none" xmlns="http://www.w3.org/2000/svg">
<path d="M31.8522 31.2906C22.8659 31.2791 13.7946 30.6536 4.88501 29.4319C9.55484 22.8064 13.8921 15.9228 17.7804 8.96311C22.5316 9.34671 27.3511 9.54191 32.1083 9.54191C35.2014 9.54191 38.3355 9.45932 41.4298 9.29673C38.6565 16.7092 35.4357 24.1059 31.8522 31.2906ZM57.7852 32.1068C57.8108 32.1044 57.8342 32.1016 57.8518 32.0988C59.1462 31.9325 60.4434 31.7544 61.7071 31.5674C62.394 31.4665 62.8672 30.841 62.7635 30.1733C62.6621 29.5194 62.0102 29.0406 61.3296 29.1473C60.3169 29.2959 59.2922 29.4401 58.2732 29.5746C51.9567 20.304 46.3217 10.5899 41.5244 0.702053C41.3176 0.276459 40.8696 8.01086e-05 40.3829 8.01086e-05L40.322 0.00196075C39.2707 0.0535736 38.1931 0.0967407 37.1179 0.128414C36.4245 0.149529 35.8774 0.715427 35.8977 1.38995C35.9199 2.05532 36.4713 2.57523 37.1944 2.57523H37.1959C38.0027 2.55106 38.8107 2.52079 39.6074 2.48654C40.3167 3.93529 41.0497 5.37889 41.7945 6.81943C38.5783 6.99867 35.3276 7.09393 32.1083 7.09393C27.1454 7.09393 22.1215 6.87949 17.1756 6.45483C16.6681 6.41166 16.1938 6.66693 15.9578 7.09393C11.6912 14.794 6.88167 22.3852 1.6635 29.6569C1.41371 30.0065 1.36665 30.4497 1.53945 30.8401C1.7125 31.2319 2.07403 31.5041 2.50725 31.5674C12.2695 33.0084 22.2265 33.739 32.1029 33.739H32.1034L32.644 33.7381C33.1277 33.7367 33.5595 33.4732 33.7716 33.0511C37.4881 25.6607 40.8156 18.0526 43.6891 10.4065C47.5656 17.5881 51.8604 24.6329 56.5152 31.4234C56.7274 31.8424 57.1758 32.1131 57.659 32.1131C57.7015 32.1131 57.7437 32.1108 57.7852 32.1068Z" fill="#702283"/>
<path d="M7.49601 50.9162C7.35989 50.7255 7.14895 50.622 6.86585 50.6129L6.61123 50.6047C6.35612 50.6047 6.15677 50.6734 6.01775 50.809C5.87922 50.9432 5.80995 51.1354 5.81092 51.3796L5.81309 52.3153C5.8213 52.8744 5.83119 53.639 5.47714 53.9883C5.33884 54.1239 5.1518 54.1894 4.89114 54.1894H4.89018L2.82594 54.1666C2.39417 54.1615 1.89747 54.0331 1.89747 53.0705L1.88975 39.855C1.8912 39.0374 2.2636 38.9325 2.58797 38.9325C2.65023 38.9325 2.71516 38.9365 2.78466 38.9461C3.47033 39.0339 4.15672 39.1176 4.8436 39.1984C5.49065 39.2762 5.7933 39.6413 5.79378 40.3475L5.79668 42.1254C5.79475 42.323 5.85508 42.5149 5.97528 42.696C6.10729 42.894 6.32547 43.0076 6.62547 43.0341L6.82796 43.0507C6.86633 43.0538 6.90301 43.0561 6.93825 43.0561C7.28965 43.0561 7.44943 42.8931 7.52279 42.7565C7.61571 42.5836 7.66229 42.4152 7.66205 42.258L7.65819 40.4946C7.65674 39.6831 7.40984 38.9874 6.92522 38.4272C6.43577 37.8629 5.75275 37.5211 4.89404 37.4103C4.20861 37.3228 3.52415 37.2316 2.84017 37.1373C1.96481 37.0167 1.26442 37.1931 0.758554 37.6619C0.254621 38.1283 0 38.8042 0 39.6685L0.000965319 53.0649C-7.00165e-08 53.9644 0.253656 54.6816 0.755176 55.1985C1.25597 55.7153 1.95153 55.9788 2.82425 55.9797L4.89645 55.9825C5.81092 55.9825 6.50045 55.7301 6.94863 55.2301C7.68257 54.4094 7.67943 53.009 7.67798 52.1714L7.6775 51.4216C7.67557 51.2562 7.61475 51.0863 7.49601 50.9162Z" fill="#702283"/>
<path d="M27.8749 47.9799C27.5783 47.6448 27.2073 47.3722 26.77 47.1711C26.3407 46.9818 25.8971 46.8324 25.4515 46.7289C25.0222 46.6294 24.5827 46.5342 24.136 46.4401C23.416 46.2913 23.1131 46.114 22.9932 45.999C22.8505 45.7982 22.7236 44.2457 22.7222 43.9231L22.719 41.4693C22.7185 41.153 22.7912 40.9212 22.9357 40.7809C23.0697 40.65 23.2818 40.5841 23.5659 40.5841L23.639 40.5857C24.2702 40.6092 24.903 40.6289 25.536 40.6467C26.0798 40.6624 26.4724 41.801 26.4724 42.5607L26.4734 42.9586C26.4724 43.4649 26.7814 43.7605 27.3191 43.7687L27.5421 43.7718C27.816 43.7718 28.0243 43.6793 28.1602 43.4971C28.2818 43.3312 28.3448 43.1587 28.3448 42.9828L28.3443 42.586C28.3458 41.874 28.1223 40.2549 27.5974 39.7409C27.106 39.2578 26.4155 38.9999 25.5464 38.9737C24.916 38.9544 24.2839 38.9324 23.6528 38.9073C22.775 38.8751 22.0845 39.0874 21.5806 39.5438C21.0738 40.0034 20.8174 40.6308 20.8203 41.4078L20.823 43.898C20.823 43.9217 20.9046 46.3962 21.3052 46.8232C21.605 47.1418 21.9742 47.4067 22.4012 47.6106C22.8151 47.8081 23.27 47.9655 23.7542 48.0784C24.2146 48.1856 24.6498 48.2778 25.0367 48.3496C25.9922 48.5711 26.4782 48.9155 26.4792 49.3702L26.4823 53.3838C26.4838 53.7155 26.4061 53.9588 26.2514 54.1097C26.1049 54.2521 25.8739 54.3246 25.557 54.3246L23.6663 54.3194C22.8105 54.3168 22.7374 53.3746 22.7359 52.3866H22.7304C22.7171 52.2079 22.6741 51.8144 22.5489 51.649C22.4111 51.4712 22.2004 51.378 21.9189 51.374L21.6424 51.3712C21.3972 51.3712 21.1997 51.4447 21.052 51.5913C20.8908 51.7588 20.85 52.24 20.8409 52.3963L20.8377 52.4692H20.8382C20.8517 53.1649 21.0588 54.798 21.605 55.302C22.1084 55.7635 22.8028 55.9986 23.6673 55.9986L25.5585 55.999C26.4218 55.999 27.1103 55.7675 27.6063 55.3097C28.1013 54.8478 28.3525 54.2096 28.3521 53.414L28.3487 49.3327C28.3487 48.7895 28.1894 48.3351 27.8749 47.9799Z" fill="#702283"/>
<path d="M31.9818 39.0677L31.7465 39.0667C31.4624 39.0667 31.2534 39.158 31.1267 39.3365C31.0164 39.4897 30.9594 39.6565 30.957 39.836L30.9609 55.2292C30.9609 55.3854 31.0164 55.5471 31.1228 55.7061C31.2088 55.8403 31.3864 55.9999 31.7489 55.9999H31.9818C32.2463 55.9999 32.4527 55.9302 32.5926 55.7927C32.7309 55.659 32.8002 55.4692 32.7992 55.2292L32.8007 39.8384C32.8007 39.349 32.5017 39.0677 31.9818 39.0677Z" fill="#702283"/>
<path d="M42.6831 38.8212L42.3763 38.8345C42.0491 38.8491 41.8246 38.9591 41.7117 39.1581C41.6168 39.3183 41.5678 39.4797 41.5659 39.6395L41.5495 50.5991C40.3686 47.3068 39.0708 43.7155 37.4927 39.3871C37.4601 39.3322 37.4012 39.2716 37.288 39.1773C37.1656 39.076 37.0049 39.0246 36.785 39.0246H36.7843L36.5816 39.0293C36.2908 39.0347 36.0673 39.1187 35.9179 39.2803C35.7789 39.4342 35.7081 39.6139 35.7077 39.8124L35.6982 55.252C35.6978 55.4601 35.7779 55.6385 35.9352 55.7832C36.0909 55.927 36.3038 56 36.5707 56H36.7761C37.0515 55.9991 37.267 55.913 37.4174 55.7382C37.5573 55.5716 37.6247 55.4116 37.6237 55.2511L37.6326 44.6188C39.1336 48.7048 40.4077 52.199 41.6125 55.5371L41.6306 55.5746C41.8034 55.852 42.0758 55.9977 42.4195 55.9977H42.5935C42.8725 55.9977 43.0847 55.9069 43.2227 55.7278C43.3463 55.5692 43.4086 55.4064 43.4095 55.2429L43.4363 39.5717C43.4363 39.4201 43.3878 39.2615 43.2939 39.1015C43.1856 38.9155 42.9799 38.8212 42.6831 38.8212Z" fill="#702283"/>
<path d="M53.1576 38.076L52.9544 38.0962C52.6612 38.1241 52.4454 38.2299 52.3139 38.4087C52.1874 38.5774 52.1254 38.7634 52.1285 38.9577L52.1102 47.6408C51.5191 47.6664 50.9276 47.6915 50.3365 47.715C49.6516 47.742 49.2913 48.2189 49.3 48.6525C49.3084 49.0438 49.6181 49.438 50.2941 49.438L50.3486 49.4375C50.9351 49.4183 51.5211 49.3958 52.1068 49.3761L52.0948 55.214C52.0943 55.4256 52.1734 55.6098 52.3284 55.7607C52.4836 55.9132 52.6892 55.9901 52.9395 55.9901L53.1449 55.9899C53.4943 55.9899 53.6814 55.8367 53.7784 55.7083C53.9365 55.4925 53.9657 53.8582 53.9657 53.8438L53.9954 38.8216C53.9954 38.6675 53.9481 38.5054 53.8525 38.3367C53.7704 38.2001 53.5834 38.0324 53.1576 38.076Z" fill="#702283"/>
<path d="M47.5512 38.5526L47.3188 38.5686C47.0487 38.5869 46.8375 38.6824 46.6912 38.8532C46.5556 39.0176 46.4859 39.2011 46.4849 39.3977L46.4571 53.9146L46.4547 53.9612C46.4294 54.8988 46.5612 55.5191 46.8479 55.8056C46.9724 55.929 47.1283 55.9954 47.2999 55.9954H47.5328C47.8077 55.994 48.0225 55.9055 48.1743 55.7277C48.3109 55.5604 48.3804 55.3936 48.3804 55.23L48.4123 39.2954C48.4123 39.1387 48.3578 38.9761 48.2501 38.8128C48.164 38.6805 47.9617 38.5233 47.5512 38.5526Z" fill="#702283"/>
<path d="M12.4621 47.6498L12.4462 39.9263C13.6773 40.0307 14.9186 40.1271 16.1625 40.2118L16.1777 47.7927C14.9511 47.7507 13.7094 47.7026 12.4621 47.6498ZM17.8876 38.9228C17.7742 38.719 17.5521 38.6038 17.2258 38.5815L17.0219 38.5681C16.9929 38.5657 16.9686 38.5686 16.9408 38.5686C16.9143 38.5643 16.8899 38.5575 16.8619 38.5557C15.1264 38.4344 13.3587 38.2858 11.6075 38.1167L11.3845 38.0946C11.1002 38.0677 10.8849 38.1355 10.7307 38.2973C10.5931 38.448 10.5215 38.6286 10.5195 38.837L10.5388 48.6516V48.6523L10.5497 53.8474C10.5497 53.8639 10.5709 55.5447 10.7662 55.7518C10.9122 55.9095 11.1253 55.9902 11.3997 55.9902H11.6338C11.9092 55.9902 12.1238 55.8994 12.2736 55.719C12.4102 55.5526 12.479 55.3835 12.4776 55.2148L12.467 49.7522C13.7046 49.7945 14.9434 49.8329 16.1813 49.8658L16.1931 55.23C16.1931 55.4384 16.2723 55.6204 16.4296 55.7701C16.5839 55.9191 16.79 55.9951 17.0402 55.9951H17.2452C17.5261 55.9951 17.7377 55.9041 17.8775 55.7211C18.0339 55.5104 18.0585 53.9321 18.0585 53.9167L18.03 39.4043C18.0269 39.2527 17.9796 39.0913 17.8876 38.9228Z" fill="#702283"/>
<path d="M62.4862 47.0973C61.2536 47.1789 60.0153 47.2544 58.7798 47.3265L58.7914 39.2789C60.0242 39.1372 61.2602 38.9842 62.491 38.8221L62.4862 47.0973ZM64.2106 37.1054C64.1291 36.9616 63.9263 36.7861 63.5071 36.8516L63.3032 36.8814C63.2754 36.8861 63.2518 36.8938 63.2255 36.8992C63.1989 36.9015 63.1731 36.9001 63.1456 36.9048C61.3977 37.1603 59.6287 37.3959 57.8869 37.6054H57.8828L57.6914 37.6284C57.4199 37.6612 57.2123 37.7699 57.0733 37.95C56.9396 38.1208 56.871 38.3116 56.8706 38.519L56.8447 53.8082C56.8447 53.8256 56.8631 55.5347 57.053 55.7419C57.1969 55.9026 57.4104 55.9847 57.688 55.9847H57.9223C58.2721 55.9838 58.4659 55.8299 58.5667 55.702C58.6988 55.5305 58.7661 55.3583 58.768 55.1878L58.7769 49.1093C60.0139 49.0502 61.2498 48.9876 62.4857 48.9197L62.4819 55.1641C62.4833 55.3825 62.5608 55.5742 62.7138 55.7332C62.8714 55.8949 63.0768 55.977 63.3254 55.977H63.5332C63.8894 55.977 64.0757 55.8123 64.1691 55.6762C64.2908 55.5003 64.3511 55.3248 64.3501 55.1544L64.3518 37.6068C64.3506 37.4419 64.3033 37.2732 64.2106 37.1054Z" fill="#702283"/>
</svg>
