<svg width="80" height="80" viewBox="0 0 80 80" fill="none" xmlns="http://www.w3.org/2000/svg">
<path d="M51.6667 46.6667H49.0333L48.1 45.7667C51.3667 41.9667 53.3333 37.0333 53.3333 31.6667C53.3333 19.7 43.6333 10 31.6667 10C19.7 10 10 19.7 10 31.6667C10 43.6333 19.7 53.3333 31.6667 53.3333C37.0333 53.3333 41.9667 51.3667 45.7667 48.1L46.6667 49.0333V51.6667L63.3333 68.3L68.3 63.3333L51.6667 46.6667ZM31.6667 46.6667C23.3667 46.6667 16.6667 39.9667 16.6667 31.6667C16.6667 23.3667 23.3667 16.6667 31.6667 16.6667C39.9667 16.6667 46.6667 23.3667 46.6667 31.6667C46.6667 39.9667 39.9667 46.6667 31.6667 46.6667Z" fill="#007940"/>
</svg>
