<svg width="74" height="74" viewBox="0 0 74 74" fill="none" xmlns="http://www.w3.org/2000/svg">
<path d="M39.9673 34.0002C34.034 32.0335 31.1673 30.8002 31.1673 27.6668C31.1673 24.2668 34.8673 23.0335 37.2006 23.0335C41.5673 23.0335 43.1673 26.3335 43.534 27.5002L48.8006 25.2668C48.3006 23.7668 46.0673 18.8668 40.334 17.8002V13.6668H33.6673V17.8668C25.4006 19.7335 25.3673 27.4002 25.3673 27.7335C25.3673 35.3002 32.8673 37.4335 36.534 38.7668C41.8006 40.6335 44.134 42.3335 44.134 45.5335C44.134 49.3002 40.634 50.9002 37.534 50.9002C31.4673 50.9002 29.734 44.6668 29.534 43.9335L24.0007 46.1668C26.1007 53.4668 31.6006 55.4335 33.6673 56.0335V60.3335H40.334V56.2002C41.6673 55.9002 50.0006 54.2335 50.0006 45.4668C50.0006 40.8335 47.9673 36.7668 39.9673 34.0002ZM7.00065 67.0002H0.333984V47.0002H20.334V53.6668H12.0673C17.434 61.7002 26.6006 67.0002 37.0006 67.0002C53.5673 67.0002 67.0006 53.5668 67.0006 37.0002H73.6673C73.6673 57.2668 57.2673 73.6668 37.0006 73.6668C24.6006 73.6668 13.634 67.5002 7.00065 58.1002V67.0002ZM0.333984 37.0002C0.333984 16.7335 16.734 0.333496 37.0006 0.333496C49.4006 0.333496 60.3673 6.50016 67.0006 15.9002V7.00016H73.6673V27.0002H53.6673V20.3335H61.934C56.5673 12.3002 47.4006 7.00016 37.0006 7.00016C20.434 7.00016 7.00065 20.4335 7.00065 37.0002H0.333984Z" fill="#F7A70B"/>
</svg>
