<svg width="80" height="80" viewBox="0 0 80 80" fill="none" xmlns="http://www.w3.org/2000/svg">
<path d="M51.666 36.6665C54.4274 36.6665 56.666 34.4279 56.666 31.6665C56.666 28.9051 54.4274 26.6665 51.666 26.6665C48.9046 26.6665 46.666 28.9051 46.666 31.6665C46.666 34.4279 48.9046 36.6665 51.666 36.6665Z" fill="#F7A70B"/>
<path d="M28.334 36.6665C31.0954 36.6665 33.334 34.4279 33.334 31.6665C33.334 28.9051 31.0954 26.6665 28.334 26.6665C25.5726 26.6665 23.334 28.9051 23.334 31.6665C23.334 34.4279 25.5726 36.6665 28.334 36.6665Z" fill="#F7A70B"/>
<path d="M39.9994 53.3332C35.066 53.3332 30.8327 50.6332 28.4994 46.6665H22.9327C25.5994 53.4998 32.2327 58.3332 39.9994 58.3332C47.766 58.3332 54.3994 53.4998 57.066 46.6665H51.4994C49.1994 50.6332 44.9327 53.3332 39.9994 53.3332ZM39.966 6.6665C21.566 6.6665 6.66602 21.5998 6.66602 39.9998C6.66602 58.3998 21.566 73.3332 39.966 73.3332C58.3993 73.3332 73.3327 58.3998 73.3327 39.9998C73.3327 21.5998 58.3993 6.6665 39.966 6.6665ZM39.9994 66.6665C25.266 66.6665 13.3327 54.7332 13.3327 39.9998C13.3327 25.2665 25.266 13.3332 39.9994 13.3332C54.7327 13.3332 66.666 25.2665 66.666 39.9998C66.666 54.7332 54.7327 66.6665 39.9994 66.6665Z" fill="#F7A70B"/>
</svg>
