<svg width="80" height="80" viewBox="0 0 80 80" fill="none" xmlns="http://www.w3.org/2000/svg">
<path d="M13.3337 53.3333C17.0156 53.3333 20.0003 50.3486 20.0003 46.6667C20.0003 42.9848 17.0156 40 13.3337 40C9.65176 40 6.66699 42.9848 6.66699 46.6667C6.66699 50.3486 9.65176 53.3333 13.3337 53.3333Z" fill="#007940"/>
<path d="M4.06667 58.5998C1.6 59.6665 0 62.0665 0 64.7665V69.9998H15V64.6332C15 61.8665 15.7667 59.2665 17.1 56.9998C15.8667 56.7998 14.6333 56.6665 13.3333 56.6665C10.0333 56.6665 6.9 57.3665 4.06667 58.5998Z" fill="#007940"/>
<path d="M66.6667 53.3333C70.3486 53.3333 73.3333 50.3486 73.3333 46.6667C73.3333 42.9848 70.3486 40 66.6667 40C62.9848 40 60 42.9848 60 46.6667C60 50.3486 62.9848 53.3333 66.6667 53.3333Z" fill="#007940"/>
<path d="M75.9337 58.5998C73.1004 57.3665 69.9671 56.6665 66.6671 56.6665C65.3671 56.6665 64.1337 56.7998 62.9004 56.9998C64.2337 59.2665 65.0004 61.8665 65.0004 64.6332V69.9998H80.0004V64.7665C80.0004 62.0665 78.4004 59.6665 75.9337 58.5998Z" fill="#007940"/>
<path d="M54.1333 55.5C50.2333 53.7667 45.4333 52.5 40 52.5C34.5667 52.5 29.7667 53.8 25.8667 55.5C22.2667 57.1 20 60.7 20 64.6333V70H60V64.6333C60 60.7 57.7333 57.1 54.1333 55.5Z" fill="#007940"/>
<path d="M30 40C30 45.5333 34.4667 50 40 50C45.5333 50 50 45.5333 50 40C50 34.4667 45.5333 30 40 30C34.4667 30 30 34.4667 30 40Z" fill="#007940"/>
<path d="M8.26667 36.1998C7.23333 33.6665 6.66667 31.1998 6.66667 28.6665C6.66667 20.0665 13.4 13.3332 22 13.3332C30.9333 13.3332 34.7333 19.1332 40 25.2998C45.2333 19.1998 49 13.3332 58 13.3332C66.6 13.3332 73.3333 20.0665 73.3333 28.6665C73.3333 31.1998 72.7667 33.6665 71.7333 36.1998C73.9 37.2332 75.6667 38.9332 76.8333 40.9998C78.8333 36.9998 80 32.9332 80 28.6665C80 16.3332 70.3333 6.6665 58 6.6665C51.0333 6.6665 44.3667 9.89984 40 15.0332C35.6333 9.89984 28.9667 6.6665 22 6.6665C9.66667 6.6665 0 16.3332 0 28.6665C0 32.9332 1.16667 36.9998 3.2 40.9998C4.36667 38.9332 6.13333 37.2332 8.26667 36.1998Z" fill="#007940"/>
</svg>
