<svg width="403" height="202" viewBox="0 0 403 202" fill="none" xmlns="http://www.w3.org/2000/svg">
<path d="M78.7941 126.613C80.4096 58.0927 136.498 3.0396 205.457 3.0396C274.416 3.0396 330.505 58.0927 332.121 126.613H291.95H118.965H78.7941Z" fill="#D12229" stroke="black" stroke-width="6.0792"/>
<path d="M100.04 126.613C101.643 69.8485 148.028 24.3399 204.996 24.3399C261.963 24.3399 308.348 69.8485 309.952 126.613H277.021H132.97H100.04Z" fill="#F68A1E" stroke="black" stroke-width="6.0792"/>
<path d="M124.987 126.613C126.58 83.6609 161.8 49.3443 204.997 49.3443C248.194 49.3443 283.415 83.6609 285.008 126.613H260.402H149.593H124.987Z" fill="#FDE01A" stroke="black" stroke-width="6.0792"/>
<path d="M149.018 126.613C150.579 96.944 174.867 73.4224 204.535 73.4224C234.203 73.4224 258.49 96.944 260.052 126.613H243.626H165.444H149.018Z" fill="#008018" stroke="black" stroke-width="6.0792"/>
<path d="M169.382 126.613C170.918 108.738 185.87 94.7227 204.073 94.7227C222.275 94.7227 237.227 108.738 238.763 126.613H229.312H178.833H169.382Z" fill="#24408E" stroke="black" stroke-width="6.0792"/>
<path d="M188.001 126.613C189.422 118.998 196.084 113.245 204.073 113.245C212.063 113.245 218.724 118.998 220.145 126.613H217.001H191.145H188.001Z" fill="#C7B9FF" stroke="black" stroke-width="6.0792"/>
<path d="M118.448 109.003L117.322 112.202C116.703 113.963 117.837 115.856 119.681 116.137C120.19 116.214 120.671 116.423 121.075 116.743L123.737 118.844C124.787 119.673 125.584 120.78 126.038 122.039L127.086 124.946C127.709 126.675 127.645 128.577 126.907 130.259L125.201 134.143C124.451 135.851 123.065 137.197 121.337 137.895L114.527 140.645C112.768 141.356 111.364 142.738 110.624 144.487L108.989 148.355C108.429 149.678 107.484 150.802 106.276 151.579L102.601 153.946C101.017 154.966 99.0933 155.318 97.2498 154.924L92.7687 153.968C91.2517 153.644 89.9229 152.734 89.071 151.435L87.0564 148.364C85.641 146.206 82.4716 146.239 81.1053 148.426C80.8584 148.821 80.5359 149.163 80.1564 149.433L75.1654 152.982C73.1801 154.394 70.6126 154.694 68.3534 153.78L63.7909 151.934C62.2596 151.314 61.0337 150.115 60.3796 148.596L59.1582 145.76C57.9784 143.02 54.4043 142.348 52.3169 144.473C51.5482 145.256 50.5037 145.705 49.4073 145.726L42.2391 145.858C40.1695 145.896 38.1842 145.033 36.7969 143.493L34.1547 140.56C32.7943 139.05 32.1387 137.032 32.3516 135.011L32.6699 131.989C32.9237 129.578 31.9421 127.202 30.0616 125.674L27.5239 123.612C26.1817 122.522 25.2787 120.981 24.9823 119.276L24.3531 115.658C24.0809 114.093 24.3361 112.482 25.0785 111.079L27.2288 107.016C28.2628 105.062 30.1412 103.698 32.3172 103.32L40.055 101.978C41.9104 101.656 43.1525 99.8881 42.8293 98.0294C42.744 97.5388 42.7668 97.0356 42.896 96.555L43.9813 92.5199C44.4381 90.8212 45.5038 89.3512 46.9749 88.3906L50.5592 86.0503C52.4263 84.8311 54.7554 84.5553 56.8568 85.3046L60.3872 86.5634C61.1289 86.8278 61.813 87.2328 62.4021 87.7561L62.8987 88.1972C65.5912 90.589 69.802 89.8584 71.5293 86.6997C72.1078 85.642 73.0113 84.7994 74.1059 84.297L78.3727 82.3386C79.8531 81.6591 81.5213 81.5069 83.101 81.907L86.5739 82.7868C88.4316 83.2574 90.0237 84.4553 90.9927 86.1116L93.1459 89.7921C93.3654 90.1673 93.5466 90.5636 93.6867 90.9752L94.0252 91.9699C95.2062 95.4398 99.3251 96.8803 102.402 94.8994C103.65 94.0956 105.165 93.8186 106.618 94.1285L111.293 95.1265C113.081 95.508 114.656 96.561 115.693 98.0688L116.948 99.8928C117.534 100.744 117.929 101.711 118.106 102.729L118.69 106.089C118.86 107.065 118.776 108.069 118.448 109.003Z" fill="white" stroke="black" stroke-width="1.788"/>
<path d="M95.8925 97.0787L94.0333 90.6426C92.8164 86.4299 89.5407 83.1241 85.3434 81.8728V81.8728C78.5466 79.8465 71.4083 83.7181 69.3996 90.5201L68.3228 94.1664" stroke="black" stroke-width="6.0792"/>
<path d="M83.7391 142.949L86.9401 148.83C89.0364 152.682 92.9459 155.202 97.3124 155.517V155.517C104.385 156.027 110.521 150.7 111.017 143.619L111.282 139.836" stroke="black" stroke-width="6"/>
<path d="M111.792 141.949L118.307 140.454C122.574 139.474 126.044 136.384 127.513 132.255V132.255C129.894 125.565 126.405 118.197 119.72 115.798L116.155 114.518" stroke="black" stroke-width="6"/>
<path d="M115.784 117.171L117.947 110.836C119.364 106.687 118.575 102.097 115.854 98.6578V98.6578C111.445 93.0861 103.374 92.1473 97.8255 96.5608L94.8647 98.9161" stroke="black" stroke-width="6"/>
<path d="M56.3169 138.772L58.1895 145.205C59.4151 149.415 62.6976 152.714 66.8974 153.956V153.956C73.6985 155.968 80.8287 152.082 82.8233 145.276L83.8925 141.627" stroke="black" stroke-width="6"/>
<path d="M32.8204 126.248L32.2394 132.921C31.8591 137.29 33.726 141.556 37.1921 144.24V144.24C42.8051 148.586 50.8592 147.555 55.1814 141.938L57.4974 138.928" stroke="black" stroke-width="6"/>
<path d="M43.1931 101.704L36.5093 101.67C32.1311 101.648 28.0485 103.863 25.6777 107.546V107.546C21.8367 113.513 23.5569 121.483 29.5198 125.347L32.7008 127.408" stroke="black" stroke-width="6"/>
<path d="M69.5184 93.879L65.0896 88.8378C62.1969 85.5451 57.828 83.9566 53.503 84.6251V84.6251C46.5079 85.7062 41.718 92.263 42.8045 99.2701L43.3949 103.077" stroke="black" stroke-width="6"/>
<path d="M286.962 109.003L288.088 112.202C288.708 113.963 287.573 115.856 285.729 116.137C285.22 116.214 284.74 116.423 284.335 116.743L281.673 118.844C280.623 119.673 279.826 120.78 279.372 122.039L278.324 124.946C277.701 126.675 277.765 128.577 278.503 130.259L280.209 134.143C280.959 135.851 282.345 137.197 284.073 137.895L290.883 140.645C292.642 141.356 294.046 142.738 294.786 144.487L296.421 148.355C296.981 149.678 297.926 150.802 299.134 151.579L302.809 153.946C304.393 154.966 306.317 155.318 308.16 154.924L312.641 153.968C314.159 153.644 315.487 152.734 316.339 151.435L318.354 148.364C319.769 146.206 322.939 146.239 324.305 148.426C324.552 148.821 324.874 149.163 325.254 149.433L330.245 152.982C332.23 154.394 334.798 154.694 337.057 153.78L341.619 151.934C343.151 151.314 344.376 150.115 345.031 148.596L346.252 145.76C347.432 143.02 351.006 142.348 353.093 144.473C353.862 145.256 354.906 145.705 356.003 145.726L363.171 145.858C365.241 145.896 367.226 145.033 368.613 143.493L371.255 140.56C372.616 139.05 373.271 137.032 373.059 135.011L372.74 131.989C372.486 129.578 373.468 127.202 375.349 125.674L377.886 123.612C379.228 122.522 380.131 120.981 380.428 119.276L381.057 115.658C381.329 114.093 381.074 112.482 380.332 111.079L378.181 107.016C377.147 105.062 375.269 103.698 373.093 103.32L365.355 101.978C363.5 101.656 362.258 99.8881 362.581 98.0294C362.666 97.5388 362.643 97.0356 362.514 96.555L361.429 92.5199C360.972 90.8212 359.906 89.3512 358.435 88.3906L354.851 86.0503C352.984 84.8311 350.655 84.5553 348.553 85.3046L345.023 86.5634C344.281 86.8278 343.597 87.2328 343.008 87.7561L342.511 88.1972C339.819 90.589 335.608 89.8584 333.881 86.6997C333.302 85.642 332.399 84.7994 331.304 84.297L327.037 82.3386C325.557 81.6591 323.889 81.5069 322.309 81.907L318.836 82.7868C316.979 83.2574 315.386 84.4553 314.417 86.1116L312.264 89.7921C312.045 90.1673 311.864 90.5636 311.723 90.9752L311.385 91.9699C310.204 95.4398 306.085 96.8803 303.008 94.8994C301.76 94.0956 300.245 93.8186 298.793 94.1285L294.117 95.1265C292.329 95.508 290.755 96.561 289.717 98.0688L288.462 99.8928C287.876 100.744 287.481 101.711 287.304 102.729L286.72 106.089C286.55 107.065 286.634 108.069 286.962 109.003Z" fill="white" stroke="black" stroke-width="1.788"/>
<path d="M309.518 97.0787L311.377 90.6426C312.594 86.4299 315.869 83.1241 320.067 81.8728V81.8728C326.864 79.8465 334.002 83.7181 336.011 90.5201L337.087 94.1664" stroke="black" stroke-width="6.0792"/>
<path d="M321.671 142.949L318.47 148.83C316.374 152.682 312.464 155.202 308.098 155.517V155.517C301.025 156.027 294.889 150.7 294.393 143.619L294.128 139.836" stroke="black" stroke-width="6"/>
<path d="M293.618 141.949L287.103 140.454C282.836 139.474 279.366 136.384 277.897 132.255V132.255C275.516 125.565 279.005 118.197 285.69 115.798L289.256 114.518" stroke="black" stroke-width="6"/>
<path d="M289.626 117.171L287.463 110.836C286.046 106.687 286.835 102.097 289.557 98.6578V98.6578C293.965 93.0861 302.037 92.1473 307.585 96.5608L310.545 98.9161" stroke="black" stroke-width="6"/>
<path d="M349.093 138.772L347.221 145.205C345.995 149.415 342.713 152.714 338.513 153.956V153.956C331.712 155.968 324.581 152.082 322.587 145.276L321.518 141.627" stroke="black" stroke-width="6"/>
<path d="M372.59 126.248L373.171 132.921C373.551 137.29 371.684 141.556 368.218 144.24V144.24C362.605 148.586 354.551 147.555 350.229 141.938L347.913 138.928" stroke="black" stroke-width="6"/>
<path d="M362.217 101.704L368.901 101.67C373.279 101.648 377.362 103.863 379.733 107.546V107.546C383.573 113.513 381.853 121.483 375.89 125.347L372.709 127.408" stroke="black" stroke-width="6"/>
<path d="M335.892 93.879L340.321 88.8378C343.213 85.5451 347.582 83.9566 351.907 84.6251V84.6251C358.902 85.7062 363.692 92.263 362.606 99.2701L362.015 103.077" stroke="black" stroke-width="6"/>
</svg>
