<svg width="216" height="216" viewBox="0 0 216 216" fill="none" xmlns="http://www.w3.org/2000/svg">
<path d="M171 36H45C37.8392 36 30.9716 38.8446 25.9081 43.9081C20.8446 48.9716 18 55.8392 18 63V153C18 160.161 20.8446 167.028 25.9081 172.092C30.9716 177.155 37.8392 180 45 180H171C178.161 180 185.028 177.155 190.092 172.092C195.155 167.028 198 160.161 198 153V63C198 55.8392 195.155 48.9716 190.092 43.9081C185.028 38.8446 178.161 36 171 36V36ZM171 54L112.5 94.23C111.132 95.0199 109.58 95.4358 108 95.4358C106.42 95.4358 104.868 95.0199 103.5 94.23L45 54H171Z" fill="#FF4086"/>
</svg>
