<svg width="48" height="50" viewBox="0 0 48 50" fill="none" xmlns="http://www.w3.org/2000/svg">
<g clip-path="url(#clip0_202_72)">
<path d="M27.9259 12.5001V8.33341H19.9979V12.5001H27.9259ZM8.10605 16.6667V39.5834H39.8178V16.6667H8.10605ZM39.8178 12.5001C42.0178 12.5001 43.7817 14.3542 43.7817 16.6667V39.5834C43.7817 41.8959 42.0178 43.7501 39.8178 43.7501H8.10605C5.90605 43.7501 4.14209 41.8959 4.14209 39.5834L4.16191 16.6667C4.16191 14.3542 5.90605 12.5001 8.10605 12.5001H16.034V8.33341C16.034 6.02091 17.7979 4.16675 19.9979 4.16675H27.9259C30.1259 4.16675 31.8898 6.02091 31.8898 8.33341V12.5001H39.8178Z" fill="#702283"/>
</g>
<defs>
<clipPath id="clip0_202_72">
<rect width="47.5676" height="50" fill="white" transform="translate(0.178223)"/>
</clipPath>
</defs>
</svg>
