<svg width="71" height="68" viewBox="0 0 71 68" fill="none" xmlns="http://www.w3.org/2000/svg">
<path d="M0.946068 34.126C0.946068 52.4742 16.6052 67.3483 35.9218 67.3483C55.2383 67.3483 70.8975 52.4742 70.8975 34.126C70.8975 15.7779 55.2383 0.903809 35.9218 0.903809C16.6052 0.903809 0.946068 15.7779 0.946068 34.126ZM56.9072 34.126C56.9072 45.1349 47.5117 54.0594 35.9218 54.0594C24.3318 54.0594 14.9363 45.1349 14.9363 34.126C14.9363 23.1172 24.3318 14.1927 35.9218 14.1927C47.5117 14.1927 56.9072 23.1172 56.9072 34.126Z" fill="#FFE7F0"/>
<path opacity="0.2" d="M35.922 0.904053C43.3669 0.904053 50.6176 3.16057 56.619 7.34527C62.6205 11.53 67.0596 17.4245 69.2905 24.1713C71.5214 30.918 71.4276 38.1649 69.0228 44.8575C66.6181 51.5501 62.0277 57.3392 55.9198 61.3825L47.9207 50.4801C51.5854 48.0541 54.3396 44.5806 55.7825 40.565C57.2254 36.5495 57.2816 32.2013 55.9431 28.1533C54.6046 24.1053 51.9411 20.5685 48.3402 18.0577C44.7393 15.5469 40.3889 14.193 35.922 14.193V0.904053Z" fill="#FF4086"/>
<path d="M35.9218 0.903805C43.3993 0.903806 50.6801 3.18014 56.6958 7.39882C62.7115 11.6175 67.1454 17.5564 69.3471 24.3443C71.5487 31.1321 71.4022 38.4115 68.9289 45.1145C66.4557 51.8174 61.7859 57.591 55.6048 61.5881L47.7316 50.6033C51.4403 48.205 54.2421 44.7408 55.7261 40.7191C57.21 36.6973 57.2979 32.3297 55.9769 28.257C54.656 24.1843 51.9956 20.6209 48.3862 18.0897C44.7768 15.5585 40.4083 14.1927 35.9218 14.1927L35.9218 0.903805Z" fill="#FF4086"/>
</svg>
