<svg width="35" height="33" viewBox="0 0 35 33" fill="none" xmlns="http://www.w3.org/2000/svg">
<path d="M17.6067 11.192C20.7261 11.192 23.2718 13.6102 23.2718 16.5732C23.2718 19.5363 20.7261 21.9544 17.6067 21.9544C14.4874 21.9544 11.9417 19.5363 11.9417 16.5732C11.9417 13.6102 14.4874 11.192 17.6067 11.192ZM0.61591 16.5732C0.61591 14.3449 0.594661 12.1367 0.726406 9.91234C0.858151 7.32872 1.47863 5.03576 3.46755 3.14649C5.46072 1.25318 7.87037 0.667828 10.5903 0.542684C12.9362 0.41754 15.2608 0.437724 17.6025 0.437724C19.9484 0.437724 22.2731 0.41754 24.6147 0.542684C27.3346 0.667828 29.7485 1.25722 31.7374 3.14649C33.7306 5.0398 34.3468 7.32872 34.4786 9.91234C34.6103 12.1407 34.5891 14.3489 34.5891 16.5732C34.5891 18.7976 34.6103 21.0098 34.4786 23.2341C34.3468 25.8178 33.7264 28.1107 31.7374 30C29.7443 31.8933 27.3346 32.4787 24.6147 32.6038C22.2688 32.7289 19.9441 32.7088 17.6025 32.7088C15.2566 32.7088 12.9319 32.7289 10.5903 32.6038C7.87037 32.4787 5.45647 31.8893 3.46755 30C1.47438 28.1067 0.858151 25.8178 0.726406 23.2341C0.590411 21.0098 0.61591 18.8016 0.61591 16.5732V16.5732ZM17.6067 24.8529C22.4303 24.8529 26.3231 21.1551 26.3231 16.5732C26.3231 11.9914 22.4303 8.29354 17.6067 8.29354C12.7832 8.29354 8.89033 11.9914 8.89033 16.5732C8.89033 21.1551 12.7832 24.8529 17.6067 24.8529ZM8.53335 9.88812C9.65955 9.88812 10.569 9.02423 10.569 7.95444C10.569 6.88466 9.65955 6.02077 8.53335 6.02077C7.40714 6.02077 6.49768 6.88466 6.49768 7.95444C6.49734 8.20847 6.54977 8.46006 6.65195 8.69481C6.75413 8.92956 6.90407 9.14285 7.09316 9.32247C7.28226 9.5021 7.5068 9.64452 7.75393 9.74158C8.00106 9.83864 8.26592 9.88844 8.53335 9.88812V9.88812Z" fill="#FF4086"/>
</svg>
