<svg width="344" height="61" viewBox="0 0 344 61" fill="none" xmlns="http://www.w3.org/2000/svg">
<path d="M66.388 22.688C66.524 22.752 66.7 22.8 66.916 22.832C67.132 22.864 67.352 22.88 67.576 22.88C67.808 22.88 68.028 22.864 68.236 22.832C68.452 22.8 68.632 22.752 68.776 22.688L72.148 7.628C71.852 7.5 71.46 7.436 70.972 7.436C70.748 7.436 70.528 7.452 70.312 7.484C70.096 7.516 69.912 7.564 69.76 7.628L66.388 22.688ZM71.776 22.688C71.904 22.752 72.076 22.8 72.292 22.832C72.508 22.864 72.728 22.88 72.952 22.88C73.184 22.88 73.408 22.864 73.624 22.832C73.84 22.8 74.02 22.752 74.164 22.688L77.536 7.628C77.24 7.5 76.844 7.436 76.348 7.436C76.124 7.436 75.904 7.452 75.688 7.484C75.48 7.516 75.3 7.564 75.148 7.628L71.776 22.688ZM77.944 19.364C78.056 19.06 78.112 18.696 78.112 18.272C78.112 17.848 78.056 17.484 77.944 17.18H64.696C64.648 17.332 64.608 17.504 64.576 17.696C64.552 17.88 64.54 18.072 64.54 18.272C64.54 18.472 64.552 18.668 64.576 18.86C64.608 19.044 64.648 19.212 64.696 19.364H77.944ZM79.108 13.124C79.22 12.82 79.276 12.456 79.276 12.032C79.276 11.608 79.22 11.244 79.108 10.94H65.86C65.812 11.092 65.772 11.264 65.74 11.456C65.716 11.64 65.704 11.832 65.704 12.032C65.704 12.224 65.716 12.416 65.74 12.608C65.772 12.8 65.812 12.972 65.86 13.124H79.108ZM90.706 12.404C90.714 11.788 90.622 11.18 90.43 10.58C90.238 9.98 89.906 9.484 89.434 9.092C88.962 8.7 88.306 8.504 87.466 8.504C86.234 8.504 85.31 9.048 84.694 10.136C84.078 11.216 83.77 12.8 83.77 14.888C83.77 16.832 84.11 18.324 84.79 19.364C85.478 20.404 86.43 20.924 87.646 20.924C88.406 20.924 89.138 20.764 89.842 20.444C90.546 20.116 91.234 19.676 91.906 19.124C92.194 19.316 92.47 19.58 92.734 19.916C92.998 20.252 93.17 20.58 93.25 20.9C92.81 21.34 92.274 21.744 91.642 22.112C91.018 22.48 90.326 22.776 89.566 23C88.806 23.216 88.014 23.324 87.19 23.324C86.022 23.324 85.034 23.088 84.226 22.616C83.426 22.136 82.778 21.496 82.282 20.696C81.794 19.888 81.438 18.98 81.214 17.972C80.998 16.964 80.89 15.932 80.89 14.876C80.89 12.884 81.194 11.256 81.802 9.992C82.41 8.72 83.218 7.784 84.226 7.184C85.234 6.576 86.334 6.272 87.526 6.272C88.718 6.272 89.75 6.496 90.622 6.944C91.502 7.384 92.178 7.964 92.65 8.684C93.122 9.404 93.358 10.18 93.358 11.012C93.358 11.492 93.234 11.872 92.986 12.152C92.746 12.424 92.354 12.56 91.81 12.56C91.602 12.56 91.414 12.548 91.246 12.524C91.086 12.492 90.906 12.452 90.706 12.404ZM95.1366 19.76C95.1366 18.848 95.3406 18.096 95.7486 17.504C96.1646 16.912 96.7206 16.476 97.4166 16.196C98.1126 15.908 98.8926 15.764 99.7566 15.764C100.189 15.764 100.685 15.784 101.245 15.824C101.813 15.856 102.337 15.928 102.817 16.04V17.804C102.401 17.708 101.929 17.648 101.401 17.624C100.873 17.592 100.385 17.576 99.9366 17.576C99.2406 17.576 98.7046 17.756 98.3286 18.116C97.9606 18.476 97.7766 18.964 97.7766 19.58C97.7766 20.044 97.9086 20.44 98.1726 20.768C98.4366 21.088 98.8166 21.248 99.3126 21.248C99.8806 21.248 100.477 21.048 101.101 20.648C101.733 20.248 102.265 19.668 102.697 18.908L103.093 20.876C102.805 21.22 102.449 21.58 102.025 21.956C101.609 22.332 101.121 22.656 100.561 22.928C100.009 23.192 99.3846 23.324 98.6886 23.324C97.8886 23.324 97.2246 23.148 96.6966 22.796C96.1766 22.436 95.7846 21.984 95.5206 21.44C95.2646 20.896 95.1366 20.336 95.1366 19.76ZM105.277 21.812C105.213 22.052 105.089 22.308 104.905 22.58C104.721 22.844 104.525 23.044 104.317 23.18C103.781 23.092 103.345 22.908 103.009 22.628C102.681 22.348 102.433 22.016 102.265 21.632C102.105 21.24 102.009 20.832 101.977 20.408V15.044C101.977 14.324 101.809 13.808 101.473 13.496C101.145 13.176 100.677 13.016 100.069 13.016C99.4766 13.016 98.8606 13.104 98.2206 13.28C97.5886 13.456 96.9566 13.664 96.3246 13.904C96.1166 13.688 95.9446 13.396 95.8086 13.028C95.6726 12.66 95.5966 12.308 95.5806 11.972C96.0366 11.772 96.5526 11.592 97.1286 11.432C97.7126 11.264 98.3086 11.132 98.9166 11.036C99.5246 10.932 100.097 10.88 100.633 10.88C101.409 10.88 102.093 11.024 102.685 11.312C103.285 11.592 103.753 12.028 104.089 12.62C104.433 13.212 104.605 13.976 104.605 14.912V19.82C104.605 20.26 104.649 20.644 104.737 20.972C104.833 21.292 105.013 21.572 105.277 21.812ZM107.024 22.136C107.04 21.832 107.132 21.5 107.3 21.14C107.468 20.772 107.66 20.484 107.876 20.276C108.388 20.548 108.932 20.792 109.508 21.008C110.084 21.224 110.664 21.332 111.248 21.332C111.872 21.332 112.364 21.2 112.724 20.936C113.092 20.672 113.276 20.336 113.276 19.928C113.276 19.608 113.156 19.316 112.916 19.052C112.676 18.78 112.316 18.556 111.836 18.38L110.444 17.864C109.892 17.664 109.384 17.412 108.92 17.108C108.464 16.804 108.096 16.432 107.816 15.992C107.544 15.552 107.408 15.028 107.408 14.42C107.408 13.676 107.592 13.036 107.96 12.5C108.336 11.956 108.848 11.54 109.496 11.252C110.152 10.956 110.892 10.808 111.716 10.808C112.38 10.808 113.084 10.9 113.828 11.084C114.58 11.26 115.204 11.464 115.7 11.696C115.716 12.024 115.648 12.38 115.496 12.764C115.352 13.148 115.164 13.436 114.932 13.628C114.5 13.436 114 13.256 113.432 13.088C112.872 12.912 112.296 12.824 111.704 12.824C111.216 12.824 110.824 12.944 110.528 13.184C110.232 13.424 110.084 13.74 110.084 14.132C110.084 14.444 110.2 14.708 110.432 14.924C110.664 15.132 111.016 15.324 111.488 15.5L112.964 16.052C113.868 16.372 114.604 16.824 115.172 17.408C115.748 17.992 116.036 18.756 116.036 19.7C116.036 20.82 115.6 21.704 114.728 22.352C113.856 23 112.7 23.324 111.26 23.324C110.412 23.324 109.624 23.204 108.896 22.964C108.176 22.724 107.552 22.448 107.024 22.136ZM121.734 23C121.35 23.072 120.906 23.108 120.402 23.108C119.898 23.108 119.454 23.072 119.07 23V14.324C119.07 13.908 118.994 13.596 118.842 13.388C118.69 13.172 118.414 13.064 118.014 13.064H117.726C117.654 12.76 117.618 12.448 117.618 12.128C117.618 11.976 117.626 11.82 117.642 11.66C117.658 11.492 117.686 11.324 117.726 11.156C118.038 11.116 118.338 11.088 118.626 11.072C118.914 11.056 119.15 11.048 119.334 11.048H119.694C120.326 11.048 120.822 11.248 121.182 11.648C121.55 12.048 121.734 12.596 121.734 13.292V23ZM118.326 7.904C118.326 7.488 118.402 7.116 118.554 6.788C118.714 6.7 118.922 6.628 119.178 6.572C119.442 6.508 119.698 6.476 119.946 6.476C120.178 6.476 120.434 6.508 120.714 6.572C120.994 6.628 121.202 6.7 121.338 6.788C121.402 6.94 121.454 7.12 121.494 7.328C121.542 7.536 121.566 7.728 121.566 7.904C121.566 8.32 121.49 8.696 121.338 9.032C121.21 9.12 121.002 9.192 120.714 9.248C120.434 9.304 120.178 9.332 119.946 9.332C119.698 9.332 119.438 9.304 119.166 9.248C118.902 9.192 118.698 9.12 118.554 9.032C118.402 8.696 118.326 8.32 118.326 7.904ZM126.484 11.012C127.028 11.012 127.412 11.184 127.636 11.528C127.868 11.864 127.984 12.328 127.984 12.92V23C127.608 23.072 127.168 23.108 126.664 23.108C126.16 23.108 125.712 23.072 125.32 23V11.168L125.476 11.012H126.484ZM134.896 20.396C134.896 20.82 134.928 21.224 134.992 21.608C135.056 21.984 135.168 22.312 135.328 22.592C135.128 22.76 134.88 22.896 134.584 23C134.288 23.112 133.98 23.168 133.66 23.168C133.132 23.168 132.76 23.024 132.544 22.736C132.336 22.448 132.232 22.028 132.232 21.476V15.512C132.232 14.744 132.136 14.188 131.944 13.844C131.752 13.492 131.372 13.316 130.804 13.316C130.428 13.316 130.016 13.408 129.568 13.592C129.12 13.776 128.696 14.04 128.296 14.384C127.896 14.728 127.568 15.144 127.312 15.632V13.124C127.856 12.516 128.504 11.996 129.256 11.564C130.016 11.132 130.828 10.916 131.692 10.916C132.436 10.916 133.044 11.092 133.516 11.444C133.988 11.796 134.336 12.272 134.56 12.872C134.784 13.472 134.896 14.148 134.896 14.9V20.396ZM141.025 23C140.649 23.072 140.209 23.108 139.705 23.108C139.249 23.108 138.821 23.072 138.421 23V5.504L138.577 5.348H139.585C140.145 5.348 140.525 5.48 140.725 5.744C140.925 6.008 141.025 6.436 141.025 7.028V23ZM147.949 20.396C147.949 20.82 147.977 21.224 148.033 21.608C148.097 21.984 148.209 22.312 148.369 22.592C148.177 22.76 147.933 22.896 147.637 23C147.341 23.112 147.029 23.168 146.701 23.168C146.173 23.168 145.805 23.024 145.597 22.736C145.389 22.448 145.285 22.028 145.285 21.476V15.536C145.285 14.76 145.185 14.2 144.985 13.856C144.793 13.504 144.417 13.328 143.857 13.328C143.473 13.328 143.057 13.424 142.609 13.616C142.169 13.8 141.745 14.064 141.337 14.408C140.937 14.752 140.613 15.164 140.365 15.644V13.136C140.901 12.528 141.549 12.008 142.309 11.576C143.069 11.144 143.877 10.928 144.733 10.928C145.485 10.928 146.097 11.104 146.569 11.456C147.041 11.808 147.389 12.288 147.613 12.896C147.837 13.496 147.949 14.172 147.949 14.924V20.396ZM150.66 19.76C150.66 18.848 150.864 18.096 151.272 17.504C151.688 16.912 152.244 16.476 152.94 16.196C153.636 15.908 154.416 15.764 155.28 15.764C155.712 15.764 156.208 15.784 156.768 15.824C157.336 15.856 157.86 15.928 158.34 16.04V17.804C157.924 17.708 157.452 17.648 156.924 17.624C156.396 17.592 155.908 17.576 155.46 17.576C154.764 17.576 154.228 17.756 153.852 18.116C153.484 18.476 153.3 18.964 153.3 19.58C153.3 20.044 153.432 20.44 153.696 20.768C153.96 21.088 154.34 21.248 154.836 21.248C155.404 21.248 156 21.048 156.624 20.648C157.256 20.248 157.788 19.668 158.22 18.908L158.616 20.876C158.328 21.22 157.972 21.58 157.548 21.956C157.132 22.332 156.644 22.656 156.084 22.928C155.532 23.192 154.908 23.324 154.212 23.324C153.412 23.324 152.748 23.148 152.22 22.796C151.7 22.436 151.308 21.984 151.044 21.44C150.788 20.896 150.66 20.336 150.66 19.76ZM160.8 21.812C160.736 22.052 160.612 22.308 160.428 22.58C160.244 22.844 160.048 23.044 159.84 23.18C159.304 23.092 158.868 22.908 158.532 22.628C158.204 22.348 157.956 22.016 157.788 21.632C157.628 21.24 157.532 20.832 157.5 20.408V15.044C157.5 14.324 157.332 13.808 156.996 13.496C156.668 13.176 156.2 13.016 155.592 13.016C155 13.016 154.384 13.104 153.744 13.28C153.112 13.456 152.48 13.664 151.848 13.904C151.64 13.688 151.468 13.396 151.332 13.028C151.196 12.66 151.12 12.308 151.104 11.972C151.56 11.772 152.076 11.592 152.652 11.432C153.236 11.264 153.832 11.132 154.44 11.036C155.048 10.932 155.62 10.88 156.156 10.88C156.932 10.88 157.616 11.024 158.208 11.312C158.808 11.592 159.276 12.028 159.612 12.62C159.956 13.212 160.128 13.976 160.128 14.912V19.82C160.128 20.26 160.172 20.644 160.26 20.972C160.356 21.292 160.536 21.572 160.8 21.812ZM174.884 11.468C174.884 12.212 174.748 12.88 174.476 13.472C174.204 14.056 173.836 14.552 173.372 14.96C172.908 15.36 172.396 15.656 171.836 15.848C172.244 15.984 172.588 16.244 172.868 16.628C173.156 17.004 173.388 17.428 173.564 17.9L174.572 20.6C174.74 21.064 174.908 21.424 175.076 21.68C175.244 21.936 175.44 22.156 175.664 22.34C175.488 22.596 175.22 22.8 174.86 22.952C174.508 23.104 174.16 23.18 173.816 23.18C173.304 23.18 172.928 23.04 172.688 22.76C172.456 22.472 172.24 22.056 172.04 21.512L170.888 18.38C170.696 17.852 170.436 17.408 170.108 17.048C169.78 16.68 169.248 16.496 168.512 16.496H165.584V14.372C165.928 14.356 166.328 14.34 166.784 14.324C167.248 14.308 167.696 14.296 168.128 14.288C168.568 14.28 168.936 14.276 169.232 14.276C169.984 14.276 170.564 14.14 170.972 13.868C171.388 13.588 171.672 13.232 171.824 12.8C171.984 12.368 172.064 11.924 172.064 11.468C172.064 10.988 171.984 10.536 171.824 10.112C171.672 9.68 171.388 9.332 170.972 9.068C170.564 8.796 169.984 8.66 169.232 8.66C169.008 8.66 168.748 8.66 168.452 8.66C168.164 8.66 167.864 8.66 167.552 8.66C167.248 8.652 166.964 8.644 166.7 8.636V23C166.484 23.04 166.252 23.068 166.004 23.084C165.764 23.1 165.536 23.108 165.32 23.108C165.136 23.108 164.916 23.1 164.66 23.084C164.412 23.068 164.184 23.04 163.976 23V6.74L164.132 6.584C165.06 6.568 165.96 6.552 166.832 6.536C167.704 6.512 168.556 6.5 169.388 6.5C170.5 6.5 171.468 6.688 172.292 7.064C173.116 7.44 173.752 7.996 174.2 8.732C174.656 9.468 174.884 10.38 174.884 11.468ZM178.66 17.912V16.004H184.312V15.692C184.312 15.164 184.236 14.68 184.084 14.24C183.94 13.792 183.7 13.436 183.364 13.172C183.028 12.9 182.588 12.764 182.044 12.764C181.26 12.764 180.676 13.096 180.292 13.76C179.916 14.416 179.728 15.328 179.728 16.496V17.312C179.728 18.04 179.8 18.696 179.944 19.28C180.096 19.864 180.364 20.328 180.748 20.672C181.132 21.008 181.684 21.176 182.404 21.176C183.004 21.176 183.58 21.092 184.132 20.924C184.684 20.748 185.216 20.536 185.728 20.288C185.936 20.496 186.108 20.76 186.244 21.08C186.388 21.4 186.48 21.696 186.52 21.968C185.944 22.376 185.256 22.704 184.456 22.952C183.656 23.2 182.84 23.324 182.008 23.324C181.04 23.324 180.232 23.156 179.584 22.82C178.936 22.476 178.424 22.012 178.048 21.428C177.672 20.836 177.4 20.168 177.232 19.424C177.072 18.68 176.992 17.904 176.992 17.096C176.992 15.896 177.176 14.824 177.544 13.88C177.92 12.936 178.48 12.188 179.224 11.636C179.976 11.084 180.92 10.808 182.056 10.808C183.096 10.808 183.972 11.036 184.684 11.492C185.396 11.948 185.936 12.564 186.304 13.34C186.672 14.108 186.856 14.972 186.856 15.932C186.856 16.34 186.84 16.688 186.808 16.976C186.784 17.256 186.732 17.568 186.652 17.912H178.66ZM188.68 22.136C188.696 21.832 188.788 21.5 188.956 21.14C189.124 20.772 189.316 20.484 189.532 20.276C190.044 20.548 190.588 20.792 191.164 21.008C191.74 21.224 192.32 21.332 192.904 21.332C193.528 21.332 194.02 21.2 194.38 20.936C194.748 20.672 194.932 20.336 194.932 19.928C194.932 19.608 194.812 19.316 194.572 19.052C194.332 18.78 193.972 18.556 193.492 18.38L192.1 17.864C191.548 17.664 191.04 17.412 190.576 17.108C190.12 16.804 189.752 16.432 189.472 15.992C189.2 15.552 189.064 15.028 189.064 14.42C189.064 13.676 189.248 13.036 189.616 12.5C189.992 11.956 190.504 11.54 191.152 11.252C191.808 10.956 192.548 10.808 193.372 10.808C194.036 10.808 194.74 10.9 195.484 11.084C196.236 11.26 196.86 11.464 197.356 11.696C197.372 12.024 197.304 12.38 197.152 12.764C197.008 13.148 196.82 13.436 196.588 13.628C196.156 13.436 195.656 13.256 195.088 13.088C194.528 12.912 193.952 12.824 193.36 12.824C192.872 12.824 192.48 12.944 192.184 13.184C191.888 13.424 191.74 13.74 191.74 14.132C191.74 14.444 191.856 14.708 192.088 14.924C192.32 15.132 192.672 15.324 193.144 15.5L194.62 16.052C195.524 16.372 196.26 16.824 196.828 17.408C197.404 17.992 197.692 18.756 197.692 19.7C197.692 20.82 197.256 21.704 196.384 22.352C195.512 23 194.356 23.324 192.916 23.324C192.068 23.324 191.28 23.204 190.552 22.964C189.832 22.724 189.208 22.448 188.68 22.136ZM203.391 23C203.007 23.072 202.563 23.108 202.059 23.108C201.555 23.108 201.111 23.072 200.727 23V14.324C200.727 13.908 200.651 13.596 200.499 13.388C200.347 13.172 200.071 13.064 199.671 13.064H199.383C199.311 12.76 199.275 12.448 199.275 12.128C199.275 11.976 199.283 11.82 199.299 11.66C199.315 11.492 199.343 11.324 199.383 11.156C199.695 11.116 199.995 11.088 200.283 11.072C200.571 11.056 200.807 11.048 200.991 11.048H201.351C201.983 11.048 202.479 11.248 202.839 11.648C203.207 12.048 203.391 12.596 203.391 13.292V23ZM199.983 7.904C199.983 7.488 200.059 7.116 200.211 6.788C200.371 6.7 200.579 6.628 200.835 6.572C201.099 6.508 201.355 6.476 201.603 6.476C201.835 6.476 202.091 6.508 202.371 6.572C202.651 6.628 202.859 6.7 202.995 6.788C203.059 6.94 203.111 7.12 203.151 7.328C203.199 7.536 203.223 7.728 203.223 7.904C203.223 8.32 203.147 8.696 202.995 9.032C202.867 9.12 202.659 9.192 202.371 9.248C202.091 9.304 201.835 9.332 201.603 9.332C201.355 9.332 201.095 9.304 200.823 9.248C200.559 9.192 200.355 9.12 200.211 9.032C200.059 8.696 199.983 8.32 199.983 7.904ZM205.86 22.136C205.876 21.832 205.968 21.5 206.136 21.14C206.304 20.772 206.496 20.484 206.712 20.276C207.224 20.548 207.768 20.792 208.344 21.008C208.92 21.224 209.5 21.332 210.084 21.332C210.708 21.332 211.2 21.2 211.56 20.936C211.928 20.672 212.112 20.336 212.112 19.928C212.112 19.608 211.992 19.316 211.752 19.052C211.512 18.78 211.152 18.556 210.672 18.38L209.28 17.864C208.728 17.664 208.22 17.412 207.756 17.108C207.3 16.804 206.932 16.432 206.652 15.992C206.38 15.552 206.244 15.028 206.244 14.42C206.244 13.676 206.428 13.036 206.796 12.5C207.172 11.956 207.684 11.54 208.332 11.252C208.988 10.956 209.728 10.808 210.552 10.808C211.216 10.808 211.92 10.9 212.664 11.084C213.416 11.26 214.04 11.464 214.536 11.696C214.552 12.024 214.484 12.38 214.332 12.764C214.188 13.148 214 13.436 213.768 13.628C213.336 13.436 212.836 13.256 212.268 13.088C211.708 12.912 211.132 12.824 210.54 12.824C210.052 12.824 209.66 12.944 209.364 13.184C209.068 13.424 208.92 13.74 208.92 14.132C208.92 14.444 209.036 14.708 209.268 14.924C209.5 15.132 209.852 15.324 210.324 15.5L211.8 16.052C212.704 16.372 213.44 16.824 214.008 17.408C214.584 17.992 214.872 18.756 214.872 19.7C214.872 20.82 214.436 21.704 213.564 22.352C212.692 23 211.536 23.324 210.096 23.324C209.248 23.324 208.46 23.204 207.732 22.964C207.012 22.724 206.388 22.448 205.86 22.136ZM217.944 9.152C217.944 8.552 218.044 8.124 218.244 7.868C218.452 7.604 218.832 7.472 219.384 7.472H220.404L220.548 7.616V19.964C220.548 20.284 220.624 20.54 220.776 20.732C220.936 20.916 221.196 21.008 221.556 21.008H223.164C223.308 21.416 223.38 21.86 223.38 22.34C223.38 22.436 223.376 22.536 223.368 22.64C223.368 22.744 223.352 22.836 223.32 22.916C222.92 22.972 222.48 23.016 222 23.048C221.528 23.088 221.056 23.108 220.584 23.108C219.728 23.108 219.072 22.892 218.616 22.46C218.168 22.028 217.944 21.38 217.944 20.516V9.152ZM223.512 11.108C223.584 11.444 223.62 11.768 223.62 12.08C223.62 12.416 223.584 12.744 223.512 13.064L219.504 13.004L216.18 13.064C216.1 12.744 216.06 12.416 216.06 12.08C216.06 11.768 216.1 11.444 216.18 11.108L219.54 11.168L223.512 11.108ZM226.637 17.912V16.004H232.289V15.692C232.289 15.164 232.213 14.68 232.061 14.24C231.917 13.792 231.677 13.436 231.341 13.172C231.005 12.9 230.565 12.764 230.021 12.764C229.237 12.764 228.653 13.096 228.269 13.76C227.893 14.416 227.705 15.328 227.705 16.496V17.312C227.705 18.04 227.777 18.696 227.921 19.28C228.073 19.864 228.341 20.328 228.725 20.672C229.109 21.008 229.661 21.176 230.381 21.176C230.981 21.176 231.557 21.092 232.109 20.924C232.661 20.748 233.193 20.536 233.705 20.288C233.913 20.496 234.085 20.76 234.221 21.08C234.365 21.4 234.457 21.696 234.497 21.968C233.921 22.376 233.233 22.704 232.433 22.952C231.633 23.2 230.817 23.324 229.985 23.324C229.017 23.324 228.209 23.156 227.561 22.82C226.913 22.476 226.401 22.012 226.025 21.428C225.649 20.836 225.377 20.168 225.209 19.424C225.049 18.68 224.969 17.904 224.969 17.096C224.969 15.896 225.153 14.824 225.521 13.88C225.897 12.936 226.457 12.188 227.201 11.636C227.953 11.084 228.897 10.808 230.033 10.808C231.073 10.808 231.949 11.036 232.661 11.492C233.373 11.948 233.913 12.564 234.281 13.34C234.649 14.108 234.833 14.972 234.833 15.932C234.833 16.34 234.817 16.688 234.785 16.976C234.761 17.256 234.709 17.568 234.629 17.912H226.637Z" fill="#F8BC2E"/>
<path d="M13.8264 21.0218L0.508686 47.4981C-0.691452 49.9287 0.304031 52.8748 2.73715 54.0749C3.4446 54.4236 4.22533 54.5979 5.01363 54.5827L10.984 54.464C12.3004 54.4387 13.5005 53.7085 14.1271 52.5514L22.4674 37.0607L21.525 35.4235L13.8264 21.0193V21.0218Z" fill="#F8BC2E"/>
<path d="M34.0292 52.5514C34.6533 53.7111 35.8559 54.4413 37.1723 54.464L43.0896 54.5827H43.1932C45.9042 54.6105 48.1251 52.4326 48.1529 49.7216C48.1605 48.9509 47.9862 48.1904 47.6451 47.4981L27.2857 6.46098C26.5454 4.96522 25.0269 4.01522 23.3593 4.00006H15.3727C12.9219 3.98743 10.9234 5.96576 10.9132 8.41657C10.9107 9.15939 11.0926 9.89211 11.4464 10.5465L15.3752 17.8913L17.9928 22.75L24.0819 34.0237L34.0342 52.5514H34.0292Z" fill="#F8BC2E"/>
<path d="M71 37.34C71.12 37.32 71.26 37.3067 71.42 37.3C71.5867 37.2867 71.7333 37.28 71.86 37.28C72.0133 37.28 72.17 37.2867 72.33 37.3C72.4967 37.3067 72.64 37.32 72.76 37.34L72.36 39.08H72.22C72.2333 39.48 72.25 39.92 72.27 40.4C72.29 40.8733 72.3067 41.36 72.32 41.86C72.3333 42.36 72.34 42.84 72.34 43.3V51C72.2133 51.02 72.0933 51.0333 71.98 51.04C71.8667 51.0533 71.76 51.06 71.66 51.06C71.56 51.06 71.4533 51.0533 71.34 51.04C71.2333 51.0333 71.12 51.02 71 51V37.34ZM73.66 41.82C73.4 41.34 73.16 40.8767 72.94 40.43C72.72 39.9767 72.5 39.5267 72.28 39.08L71.59 38.2L72.76 37.34L77.72 46.52C77.98 47 78.2233 47.4767 78.45 47.95C78.6767 48.4233 78.9 48.88 79.12 49.32L79.81 50.01L78.62 51L73.66 41.82ZM80.4 37.38V51C80.28 51.02 80.15 51.0333 80.01 51.04C79.8767 51.0533 79.7133 51.06 79.52 51.06C79.3333 51.06 79.1667 51.0533 79.02 51.04C78.8733 51.0333 78.74 51.02 78.62 51L79.04 49.32H79.18C79.16 48.84 79.14 48.3433 79.12 47.83C79.1 47.3167 79.0833 46.8067 79.07 46.3C79.0633 45.7867 79.06 45.3 79.06 44.84V38.22C79.06 37.9067 79.1033 37.6733 79.19 37.52C79.2767 37.36 79.48 37.28 79.8 37.28H80.28L80.4 37.38ZM83.4384 48.34C83.4384 47.6067 83.5951 47.0033 83.9084 46.53C84.2218 46.0567 84.6584 45.7067 85.2184 45.48C85.7784 45.2533 86.4318 45.14 87.1784 45.14C87.5984 45.14 88.0484 45.1633 88.5284 45.21C89.0151 45.25 89.4718 45.3267 89.8984 45.44V46.44C89.4984 46.3467 89.0584 46.2833 88.5784 46.25C88.1051 46.2167 87.6384 46.2 87.1784 46.2C86.4718 46.2 85.9084 46.3767 85.4884 46.73C85.0684 47.0833 84.8584 47.5867 84.8584 48.24C84.8584 48.74 84.9951 49.1667 85.2684 49.52C85.5484 49.8667 85.9518 50.04 86.4784 50.04C87.0184 50.04 87.5984 49.8533 88.2184 49.48C88.8451 49.1067 89.3718 48.54 89.7984 47.78L90.0384 49.1C89.8118 49.3667 89.5151 49.6667 89.1484 50C88.7884 50.3333 88.3684 50.6233 87.8884 50.87C87.4151 51.1167 86.8918 51.24 86.3184 51.24C85.6718 51.24 85.1351 51.0967 84.7084 50.81C84.2818 50.5233 83.9618 50.16 83.7484 49.72C83.5418 49.2733 83.4384 48.8133 83.4384 48.34ZM91.3184 50.42C91.2718 50.5467 91.1884 50.68 91.0684 50.82C90.9484 50.96 90.8118 51.0667 90.6584 51.14C90.3451 51.0133 90.0984 50.8433 89.9184 50.63C89.7384 50.4167 89.6084 50.17 89.5284 49.89C89.4551 49.6033 89.4184 49.2867 89.4184 48.94V44.28C89.4184 43.52 89.2518 42.9833 88.9184 42.67C88.5851 42.3567 88.1384 42.2 87.5784 42.2C87.0318 42.2 86.4818 42.28 85.9284 42.44C85.3751 42.6 84.8318 42.8 84.2984 43.04C84.1718 42.9267 84.0551 42.7633 83.9484 42.55C83.8484 42.33 83.7984 42.1267 83.7984 41.94C84.1251 41.7933 84.4984 41.65 84.9184 41.51C85.3451 41.3633 85.7951 41.2433 86.2684 41.15C86.7418 41.05 87.2118 41 87.6784 41C88.3784 41 88.9551 41.13 89.4084 41.39C89.8684 41.6433 90.2084 42.0167 90.4284 42.51C90.6484 43.0033 90.7584 43.6067 90.7584 44.32V48.44C90.7584 48.8667 90.7884 49.2433 90.8484 49.57C90.9151 49.8967 91.0718 50.18 91.3184 50.42ZM101.572 49.92C101.652 50.12 101.692 50.3733 101.692 50.68C101.692 50.7267 101.692 50.7767 101.692 50.83C101.692 50.8767 101.685 50.92 101.672 50.96C101.485 50.9867 101.252 51.0133 100.972 51.04C100.692 51.0667 100.452 51.08 100.252 51.08C99.7716 51.08 99.3782 50.9433 99.0716 50.67C98.7649 50.3967 98.6116 50 98.6116 49.48V36.42L98.7316 36.3H99.2316C99.5516 36.3 99.7549 36.3833 99.8416 36.55C99.9282 36.71 99.9716 36.9467 99.9716 37.26V49.08C99.9716 49.36 100.035 49.57 100.162 49.71C100.288 49.85 100.472 49.92 100.712 49.92H101.572ZM111.381 48.24C111.381 48.6667 111.411 49.0767 111.471 49.47C111.538 49.8633 111.695 50.18 111.941 50.42C111.895 50.5467 111.811 50.68 111.691 50.82C111.571 50.96 111.435 51.0667 111.281 51.14C110.775 50.94 110.435 50.62 110.261 50.18C110.088 49.74 110.001 49.26 110.001 48.74V41.2C110.181 41.16 110.408 41.14 110.681 41.14C110.968 41.14 111.201 41.16 111.381 41.2V48.24ZM103.961 43.06C103.961 42.74 103.948 42.4367 103.921 42.15C103.895 41.8567 103.835 41.6 103.741 41.38C103.841 41.2867 103.971 41.2133 104.131 41.16C104.298 41.1067 104.461 41.08 104.621 41.08C104.881 41.08 105.065 41.1567 105.171 41.31C105.285 41.4567 105.341 41.6867 105.341 42V47.62C105.341 48.4267 105.445 49.0133 105.651 49.38C105.858 49.74 106.255 49.92 106.841 49.92C107.261 49.92 107.701 49.8233 108.161 49.63C108.628 49.4367 109.058 49.18 109.451 48.86C109.851 48.54 110.161 48.1867 110.381 47.8V49.3C109.955 49.8467 109.388 50.2967 108.681 50.65C107.975 51.0033 107.255 51.18 106.521 51.18C105.888 51.18 105.385 51.04 105.011 50.76C104.638 50.4733 104.368 50.0967 104.201 49.63C104.041 49.1567 103.961 48.64 103.961 48.08V43.06ZM115.339 39.06C115.339 38.7467 115.383 38.51 115.469 38.35C115.556 38.1833 115.759 38.1 116.079 38.1H116.579L116.699 38.22V49.1C116.699 49.34 116.756 49.5367 116.869 49.69C116.989 49.8433 117.193 49.92 117.479 49.92H119.019C119.099 50.12 119.139 50.3733 119.139 50.68C119.139 50.7267 119.139 50.7767 119.139 50.83C119.139 50.8767 119.133 50.92 119.119 50.96C118.813 51 118.499 51.03 118.179 51.05C117.866 51.07 117.513 51.08 117.119 51.08C116.579 51.08 116.146 50.9433 115.819 50.67C115.499 50.3967 115.339 50 115.339 49.48V39.06ZM119.239 41.18C119.279 41.38 119.299 41.56 119.299 41.72C119.299 41.9 119.279 42.08 119.239 42.26L116.259 42.22L113.939 42.26C113.899 42.08 113.879 41.9 113.879 41.72C113.879 41.56 113.899 41.38 113.939 41.18L116.239 41.22L119.239 41.18ZM120.938 48.34C120.938 47.6067 121.095 47.0033 121.408 46.53C121.722 46.0567 122.158 45.7067 122.718 45.48C123.278 45.2533 123.932 45.14 124.678 45.14C125.098 45.14 125.548 45.1633 126.028 45.21C126.515 45.25 126.972 45.3267 127.398 45.44V46.44C126.998 46.3467 126.558 46.2833 126.078 46.25C125.605 46.2167 125.138 46.2 124.678 46.2C123.972 46.2 123.408 46.3767 122.988 46.73C122.568 47.0833 122.358 47.5867 122.358 48.24C122.358 48.74 122.495 49.1667 122.768 49.52C123.048 49.8667 123.452 50.04 123.978 50.04C124.518 50.04 125.098 49.8533 125.718 49.48C126.345 49.1067 126.872 48.54 127.298 47.78L127.538 49.1C127.312 49.3667 127.015 49.6667 126.648 50C126.288 50.3333 125.868 50.6233 125.388 50.87C124.915 51.1167 124.392 51.24 123.818 51.24C123.172 51.24 122.635 51.0967 122.208 50.81C121.782 50.5233 121.462 50.16 121.248 49.72C121.042 49.2733 120.938 48.8133 120.938 48.34ZM128.818 50.42C128.772 50.5467 128.688 50.68 128.568 50.82C128.448 50.96 128.312 51.0667 128.158 51.14C127.845 51.0133 127.598 50.8433 127.418 50.63C127.238 50.4167 127.108 50.17 127.028 49.89C126.955 49.6033 126.918 49.2867 126.918 48.94V44.28C126.918 43.52 126.752 42.9833 126.418 42.67C126.085 42.3567 125.638 42.2 125.078 42.2C124.532 42.2 123.982 42.28 123.428 42.44C122.875 42.6 122.332 42.8 121.798 43.04C121.672 42.9267 121.555 42.7633 121.448 42.55C121.348 42.33 121.298 42.1267 121.298 41.94C121.625 41.7933 121.998 41.65 122.418 41.51C122.845 41.3633 123.295 41.2433 123.768 41.15C124.242 41.05 124.712 41 125.178 41C125.878 41 126.455 41.13 126.908 41.39C127.368 41.6433 127.708 42.0167 127.928 42.51C128.148 43.0033 128.258 43.6067 128.258 44.32V48.44C128.258 48.8667 128.288 49.2433 128.348 49.57C128.415 49.8967 128.572 50.18 128.818 50.42ZM136.772 41.14C137.092 41.14 137.295 41.2233 137.382 41.39C137.468 41.55 137.512 41.7867 137.512 42.1V54.34C137.512 54.6467 137.468 54.8833 137.382 55.05C137.295 55.2167 137.092 55.3 136.772 55.3H136.272L136.152 55.18V41.26L136.272 41.14H136.772ZM143.812 45.98C143.812 47.2 143.622 48.19 143.242 48.95C142.862 49.71 142.385 50.27 141.812 50.63C141.238 50.9833 140.665 51.16 140.092 51.16C139.492 51.16 138.925 51.0367 138.392 50.79C137.858 50.5367 137.352 50.22 136.872 49.84L136.932 48.58C137.312 48.8667 137.762 49.1667 138.282 49.48C138.802 49.7867 139.365 49.94 139.972 49.94C140.378 49.94 140.768 49.8067 141.142 49.54C141.515 49.2667 141.818 48.84 142.052 48.26C142.292 47.68 142.412 46.92 142.412 45.98C142.412 45.0733 142.308 44.3433 142.102 43.79C141.895 43.23 141.622 42.8233 141.282 42.57C140.948 42.31 140.592 42.18 140.212 42.18C139.798 42.18 139.378 42.2867 138.952 42.5C138.532 42.7133 138.152 43.0167 137.812 43.41C137.472 43.8033 137.218 44.2667 137.052 44.8L136.812 43.42C136.978 43.0267 137.232 42.6433 137.572 42.27C137.918 41.89 138.335 41.5767 138.822 41.33C139.315 41.0833 139.865 40.96 140.472 40.96C141.198 40.96 141.808 41.1733 142.302 41.6C142.802 42.02 143.178 42.6067 143.432 43.36C143.685 44.1133 143.812 44.9867 143.812 45.98ZM146.759 46.52V45.44H152.319V45.16C152.319 44.5933 152.239 44.0733 152.079 43.6C151.919 43.1267 151.659 42.75 151.299 42.47C150.946 42.1833 150.479 42.04 149.899 42.04C149.093 42.04 148.473 42.3833 148.039 43.07C147.613 43.75 147.399 44.6467 147.399 45.76V46.2C147.399 46.94 147.479 47.5967 147.639 48.17C147.806 48.7433 148.079 49.1933 148.459 49.52C148.839 49.84 149.359 50 150.019 50C150.559 50 151.069 49.92 151.549 49.76C152.036 49.5933 152.499 49.3867 152.939 49.14C153.073 49.26 153.186 49.4167 153.279 49.61C153.379 49.7967 153.439 49.9667 153.459 50.12C152.999 50.44 152.449 50.7067 151.809 50.92C151.176 51.1333 150.519 51.24 149.839 51.24C149.099 51.24 148.476 51.1033 147.969 50.83C147.469 50.55 147.069 50.17 146.769 49.69C146.469 49.21 146.253 48.66 146.119 48.04C145.986 47.42 145.919 46.7667 145.919 46.08C145.919 45.0933 146.076 44.2167 146.389 43.45C146.703 42.6767 147.156 42.07 147.749 41.63C148.343 41.1833 149.059 40.96 149.899 40.96C150.753 40.96 151.463 41.1533 152.029 41.54C152.603 41.9267 153.029 42.4433 153.309 43.09C153.596 43.7367 153.739 44.4533 153.739 45.24C153.739 45.48 153.733 45.6933 153.719 45.88C153.713 46.0667 153.693 46.28 153.659 46.52H146.759ZM159.638 49.92C159.718 50.12 159.758 50.3733 159.758 50.68C159.758 50.7267 159.758 50.7767 159.758 50.83C159.758 50.8767 159.751 50.92 159.738 50.96C159.551 50.9867 159.318 51.0133 159.038 51.04C158.758 51.0667 158.518 51.08 158.318 51.08C157.838 51.08 157.445 50.9433 157.138 50.67C156.831 50.3967 156.678 50 156.678 49.48V36.42L156.798 36.3H157.298C157.618 36.3 157.821 36.3833 157.908 36.55C157.995 36.71 158.038 36.9467 158.038 37.26V49.08C158.038 49.36 158.101 49.57 158.228 49.71C158.355 49.85 158.538 49.92 158.778 49.92H159.638ZM169.668 46.1C169.668 47.0867 169.511 47.97 169.198 48.75C168.891 49.5233 168.431 50.1333 167.818 50.58C167.204 51.02 166.441 51.24 165.528 51.24C164.614 51.24 163.851 51.0167 163.238 50.57C162.631 50.1167 162.174 49.5033 161.868 48.73C161.561 47.95 161.408 47.0733 161.408 46.1C161.408 45.1133 161.561 44.2333 161.868 43.46C162.181 42.6867 162.644 42.0767 163.258 41.63C163.871 41.1833 164.628 40.96 165.528 40.96C166.448 40.96 167.214 41.1867 167.828 41.64C168.441 42.0867 168.901 42.6967 169.208 43.47C169.514 44.2433 169.668 45.12 169.668 46.1ZM162.848 46.1C162.848 46.7667 162.931 47.41 163.098 48.03C163.264 48.6433 163.544 49.15 163.938 49.55C164.331 49.9433 164.868 50.14 165.548 50.14C166.221 50.14 166.751 49.9433 167.138 49.55C167.531 49.15 167.811 48.6433 167.978 48.03C168.144 47.41 168.228 46.7667 168.228 46.1C168.228 45.44 168.144 44.8 167.978 44.18C167.811 43.5533 167.531 43.04 167.138 42.64C166.751 42.24 166.221 42.04 165.548 42.04C164.868 42.04 164.331 42.24 163.938 42.64C163.544 43.04 163.264 43.5533 163.098 44.18C162.931 44.8 162.848 45.44 162.848 46.1ZM171.479 50.24C171.492 50.0667 171.552 49.88 171.659 49.68C171.772 49.48 171.899 49.3267 172.039 49.22C172.452 49.4467 172.902 49.6567 173.389 49.85C173.875 50.0433 174.372 50.14 174.879 50.14C175.532 50.14 176.055 49.99 176.449 49.69C176.849 49.39 177.052 49.0067 177.059 48.54C177.059 48.2 176.929 47.8833 176.669 47.59C176.415 47.29 176.052 47.0533 175.579 46.88L174.389 46.44C173.935 46.2733 173.512 46.07 173.119 45.83C172.732 45.5833 172.419 45.2867 172.179 44.94C171.945 44.5867 171.829 44.1667 171.829 43.68C171.829 43.1133 171.979 42.6267 172.279 42.22C172.585 41.8133 172.989 41.5033 173.489 41.29C173.995 41.07 174.549 40.96 175.149 40.96C175.642 40.96 176.165 41.0233 176.719 41.15C177.272 41.27 177.749 41.42 178.149 41.6C178.149 41.7867 178.109 41.9833 178.029 42.19C177.955 42.39 177.849 42.56 177.709 42.7C177.402 42.56 177.019 42.4267 176.559 42.3C176.105 42.1667 175.622 42.1 175.109 42.1C174.569 42.1 174.125 42.2367 173.779 42.51C173.439 42.7767 173.269 43.14 173.269 43.6C173.269 43.9467 173.399 44.2367 173.659 44.47C173.919 44.6967 174.302 44.9067 174.809 45.1L176.039 45.56C176.779 45.8333 177.372 46.2033 177.819 46.67C178.272 47.13 178.499 47.72 178.499 48.44C178.499 49.32 178.152 50.0067 177.459 50.5C176.772 50.9933 175.899 51.24 174.839 51.24C174.139 51.24 173.505 51.14 172.939 50.94C172.379 50.7333 171.892 50.5 171.479 50.24ZM192.445 48.24C192.445 48.6667 192.475 49.0767 192.535 49.47C192.602 49.8633 192.758 50.18 193.005 50.42C192.958 50.5467 192.875 50.68 192.755 50.82C192.635 50.96 192.498 51.0667 192.345 51.14C191.838 50.94 191.502 50.62 191.335 50.18C191.168 49.74 191.085 49.26 191.085 48.74V36.42L191.205 36.3H191.705C192.025 36.3 192.228 36.3833 192.315 36.55C192.402 36.71 192.445 36.9467 192.445 37.26V48.24ZM184.825 46.22C184.825 45 185.015 44.01 185.395 43.25C185.775 42.4833 186.252 41.9233 186.825 41.57C187.398 41.2167 187.972 41.04 188.545 41.04C189.145 41.04 189.712 41.1667 190.245 41.42C190.778 41.6667 191.285 41.98 191.765 42.36L191.705 43.62C191.325 43.3267 190.875 43.0267 190.355 42.72C189.842 42.4133 189.278 42.26 188.665 42.26C188.258 42.26 187.868 42.3933 187.495 42.66C187.122 42.9267 186.815 43.3533 186.575 43.94C186.342 44.52 186.225 45.28 186.225 46.22C186.225 47.1267 186.328 47.86 186.535 48.42C186.748 48.9733 187.022 49.38 187.355 49.64C187.688 49.8933 188.045 50.02 188.425 50.02C188.838 50.02 189.255 49.9133 189.675 49.7C190.102 49.4867 190.485 49.1833 190.825 48.79C191.165 48.3967 191.418 47.9333 191.585 47.4L191.825 48.78C191.658 49.1733 191.402 49.56 191.055 49.94C190.715 50.3133 190.298 50.6233 189.805 50.87C189.318 51.1167 188.772 51.24 188.165 51.24C187.438 51.24 186.825 51.03 186.325 50.61C185.832 50.1833 185.458 49.5933 185.205 48.84C184.952 48.0867 184.825 47.2133 184.825 46.22ZM197.496 51C197.316 51.04 197.089 51.06 196.816 51.06C196.529 51.06 196.296 51.04 196.116 51V43.22C196.116 42.8467 196.056 42.5933 195.936 42.46C195.822 42.3267 195.609 42.26 195.296 42.26H195.116C195.076 42.08 195.056 41.9067 195.056 41.74C195.056 41.6467 195.059 41.5633 195.066 41.49C195.079 41.41 195.096 41.32 195.116 41.22C195.336 41.1867 195.526 41.1667 195.686 41.16C195.846 41.1467 195.976 41.14 196.076 41.14H196.236C196.636 41.14 196.946 41.2633 197.166 41.51C197.386 41.75 197.496 42.0867 197.496 42.52V51ZM195.496 38.62C195.496 38.3267 195.542 38.0867 195.636 37.9C195.729 37.84 195.859 37.7933 196.026 37.76C196.192 37.72 196.349 37.7 196.496 37.7C196.629 37.7 196.786 37.72 196.966 37.76C197.146 37.7933 197.276 37.84 197.356 37.9C197.396 37.98 197.429 38.09 197.456 38.23C197.482 38.37 197.496 38.5 197.496 38.62C197.496 38.9133 197.449 39.1533 197.356 39.34C197.289 39.4 197.162 39.45 196.976 39.49C196.789 39.5233 196.629 39.54 196.496 39.54C196.349 39.54 196.192 39.5233 196.026 39.49C195.859 39.45 195.729 39.4 195.636 39.34C195.542 39.1533 195.496 38.9133 195.496 38.62ZM206.094 41.14C206.094 41.36 206.071 41.59 206.024 41.83C205.977 42.07 205.894 42.28 205.774 42.46C205.667 42.4467 205.554 42.44 205.434 42.44C205.321 42.44 205.207 42.44 205.094 42.44C204.641 42.44 204.251 42.5367 203.924 42.73C203.597 42.9233 203.324 43.17 203.104 43.47C202.891 43.7633 202.721 44.0667 202.594 44.38C202.467 44.6933 202.374 44.9733 202.314 45.22L202.054 44.9C202.054 44.48 202.111 44.0467 202.224 43.6C202.344 43.1533 202.531 42.7367 202.784 42.35C203.037 41.9633 203.361 41.6533 203.754 41.42C204.154 41.18 204.634 41.06 205.194 41.06C205.294 41.06 205.421 41.0667 205.574 41.08C205.734 41.0867 205.907 41.1067 206.094 41.14ZM200.514 41.84C200.554 41.7067 200.631 41.5633 200.744 41.41C200.864 41.2567 200.994 41.14 201.134 41.06C201.634 41.2467 202.001 41.5767 202.234 42.05C202.467 42.5167 202.594 43.08 202.614 43.74V51C202.434 51.04 202.207 51.06 201.934 51.06C201.647 51.06 201.414 51.04 201.234 51V43.88C201.234 43.3867 201.157 42.97 201.004 42.63C200.857 42.2833 200.694 42.02 200.514 41.84ZM207.697 46.52V45.44H213.257V45.16C213.257 44.5933 213.177 44.0733 213.017 43.6C212.857 43.1267 212.597 42.75 212.237 42.47C211.884 42.1833 211.417 42.04 210.837 42.04C210.03 42.04 209.41 42.3833 208.977 43.07C208.55 43.75 208.337 44.6467 208.337 45.76V46.2C208.337 46.94 208.417 47.5967 208.577 48.17C208.744 48.7433 209.017 49.1933 209.397 49.52C209.777 49.84 210.297 50 210.957 50C211.497 50 212.007 49.92 212.487 49.76C212.974 49.5933 213.437 49.3867 213.877 49.14C214.01 49.26 214.124 49.4167 214.217 49.61C214.317 49.7967 214.377 49.9667 214.397 50.12C213.937 50.44 213.387 50.7067 212.747 50.92C212.114 51.1333 211.457 51.24 210.777 51.24C210.037 51.24 209.414 51.1033 208.907 50.83C208.407 50.55 208.007 50.17 207.707 49.69C207.407 49.21 207.19 48.66 207.057 48.04C206.924 47.42 206.857 46.7667 206.857 46.08C206.857 45.0933 207.014 44.2167 207.327 43.45C207.64 42.6767 208.094 42.07 208.687 41.63C209.28 41.1833 209.997 40.96 210.837 40.96C211.69 40.96 212.4 41.1533 212.967 41.54C213.54 41.9267 213.967 42.4433 214.247 43.09C214.534 43.7367 214.677 44.4533 214.677 45.24C214.677 45.48 214.67 45.6933 214.657 45.88C214.65 46.0667 214.63 46.28 214.597 46.52H207.697ZM219.175 51C218.995 51.04 218.769 51.06 218.495 51.06C218.209 51.06 217.975 51.04 217.795 51V43.22C217.795 42.8467 217.735 42.5933 217.615 42.46C217.502 42.3267 217.289 42.26 216.975 42.26H216.795C216.755 42.08 216.735 41.9067 216.735 41.74C216.735 41.6467 216.739 41.5633 216.745 41.49C216.759 41.41 216.775 41.32 216.795 41.22C217.015 41.1867 217.205 41.1667 217.365 41.16C217.525 41.1467 217.655 41.14 217.755 41.14H217.915C218.315 41.14 218.625 41.2633 218.845 41.51C219.065 41.75 219.175 42.0867 219.175 42.52V51ZM217.175 38.62C217.175 38.3267 217.222 38.0867 217.315 37.9C217.409 37.84 217.539 37.7933 217.705 37.76C217.872 37.72 218.029 37.7 218.175 37.7C218.309 37.7 218.465 37.72 218.645 37.76C218.825 37.7933 218.955 37.84 219.035 37.9C219.075 37.98 219.109 38.09 219.135 38.23C219.162 38.37 219.175 38.5 219.175 38.62C219.175 38.9133 219.129 39.1533 219.035 39.34C218.969 39.4 218.842 39.45 218.655 39.49C218.469 39.5233 218.309 39.54 218.175 39.54C218.029 39.54 217.872 39.5233 217.705 39.49C217.539 39.45 217.409 39.4 217.315 39.34C217.222 39.1533 217.175 38.9133 217.175 38.62ZM222.976 39.06C222.976 38.7467 223.019 38.51 223.106 38.35C223.193 38.1833 223.396 38.1 223.716 38.1H224.216L224.336 38.22V49.1C224.336 49.34 224.393 49.5367 224.506 49.69C224.626 49.8433 224.829 49.92 225.116 49.92H226.656C226.736 50.12 226.776 50.3733 226.776 50.68C226.776 50.7267 226.776 50.7767 226.776 50.83C226.776 50.8767 226.769 50.92 226.756 50.96C226.449 51 226.136 51.03 225.816 51.05C225.503 51.07 225.149 51.08 224.756 51.08C224.216 51.08 223.783 50.9433 223.456 50.67C223.136 50.3967 222.976 50 222.976 49.48V39.06ZM226.876 41.18C226.916 41.38 226.936 41.56 226.936 41.72C226.936 41.9 226.916 42.08 226.876 42.26L223.896 42.22L221.576 42.26C221.536 42.08 221.516 41.9 221.516 41.72C221.516 41.56 221.536 41.38 221.576 41.18L223.876 41.22L226.876 41.18ZM236.66 46.1C236.66 47.0867 236.503 47.97 236.19 48.75C235.883 49.5233 235.423 50.1333 234.81 50.58C234.197 51.02 233.433 51.24 232.52 51.24C231.607 51.24 230.843 51.0167 230.23 50.57C229.623 50.1167 229.167 49.5033 228.86 48.73C228.553 47.95 228.4 47.0733 228.4 46.1C228.4 45.1133 228.553 44.2333 228.86 43.46C229.173 42.6867 229.637 42.0767 230.25 41.63C230.863 41.1833 231.62 40.96 232.52 40.96C233.44 40.96 234.207 41.1867 234.82 41.64C235.433 42.0867 235.893 42.6967 236.2 43.47C236.507 44.2433 236.66 45.12 236.66 46.1ZM229.84 46.1C229.84 46.7667 229.923 47.41 230.09 48.03C230.257 48.6433 230.537 49.15 230.93 49.55C231.323 49.9433 231.86 50.14 232.54 50.14C233.213 50.14 233.743 49.9433 234.13 49.55C234.523 49.15 234.803 48.6433 234.97 48.03C235.137 47.41 235.22 46.7667 235.22 46.1C235.22 45.44 235.137 44.8 234.97 44.18C234.803 43.5533 234.523 43.04 234.13 42.64C233.743 42.24 233.213 42.04 232.54 42.04C231.86 42.04 231.323 42.24 230.93 42.64C230.537 43.04 230.257 43.5533 230.09 44.18C229.923 44.8 229.84 45.44 229.84 46.1ZM238.471 50.24C238.484 50.0667 238.544 49.88 238.651 49.68C238.764 49.48 238.891 49.3267 239.031 49.22C239.444 49.4467 239.894 49.6567 240.381 49.85C240.868 50.0433 241.364 50.14 241.871 50.14C242.524 50.14 243.048 49.99 243.441 49.69C243.841 49.39 244.044 49.0067 244.051 48.54C244.051 48.2 243.921 47.8833 243.661 47.59C243.408 47.29 243.044 47.0533 242.571 46.88L241.381 46.44C240.928 46.2733 240.504 46.07 240.111 45.83C239.724 45.5833 239.411 45.2867 239.171 44.94C238.938 44.5867 238.821 44.1667 238.821 43.68C238.821 43.1133 238.971 42.6267 239.271 42.22C239.578 41.8133 239.981 41.5033 240.481 41.29C240.988 41.07 241.541 40.96 242.141 40.96C242.634 40.96 243.158 41.0233 243.711 41.15C244.264 41.27 244.741 41.42 245.141 41.6C245.141 41.7867 245.101 41.9833 245.021 42.19C244.948 42.39 244.841 42.56 244.701 42.7C244.394 42.56 244.011 42.4267 243.551 42.3C243.098 42.1667 242.614 42.1 242.101 42.1C241.561 42.1 241.118 42.2367 240.771 42.51C240.431 42.7767 240.261 43.14 240.261 43.6C240.261 43.9467 240.391 44.2367 240.651 44.47C240.911 44.6967 241.294 44.9067 241.801 45.1L243.031 45.56C243.771 45.8333 244.364 46.2033 244.811 46.67C245.264 47.13 245.491 47.72 245.491 48.44C245.491 49.32 245.144 50.0067 244.451 50.5C243.764 50.9933 242.891 51.24 241.831 51.24C241.131 51.24 240.498 51.14 239.931 50.94C239.371 50.7333 238.884 50.5 238.471 50.24ZM253.937 51C253.757 51.04 253.531 51.06 253.257 51.06C252.984 51.06 252.757 51.04 252.577 51V36.42L252.697 36.3H253.197C253.517 36.3 253.721 36.3833 253.807 36.55C253.894 36.71 253.937 36.9467 253.937 37.26V51ZM259.977 49.14C259.977 49.46 259.991 49.7667 260.017 50.06C260.051 50.3467 260.111 50.6 260.197 50.82C260.097 50.9067 259.964 50.9767 259.797 51.03C259.637 51.09 259.477 51.12 259.317 51.12C259.057 51.12 258.871 51.0433 258.757 50.89C258.651 50.7367 258.597 50.5067 258.597 50.2V44.6C258.597 43.7867 258.494 43.2 258.287 42.84C258.087 42.48 257.691 42.3 257.097 42.3C256.677 42.3 256.234 42.3967 255.767 42.59C255.307 42.7833 254.877 43.04 254.477 43.36C254.084 43.68 253.777 44.0333 253.557 44.42V42.92C253.991 42.3667 254.561 41.9167 255.267 41.57C255.974 41.2167 256.691 41.04 257.417 41.04C258.051 41.04 258.554 41.1833 258.927 41.47C259.301 41.75 259.567 42.1267 259.727 42.6C259.894 43.0667 259.977 43.58 259.977 44.14V49.14ZM270.756 48.24C270.756 48.6667 270.786 49.0767 270.846 49.47C270.913 49.8633 271.07 50.18 271.316 50.42C271.27 50.5467 271.186 50.68 271.066 50.82C270.946 50.96 270.81 51.0667 270.656 51.14C270.15 50.94 269.81 50.62 269.636 50.18C269.463 49.74 269.376 49.26 269.376 48.74V41.2C269.556 41.16 269.783 41.14 270.056 41.14C270.343 41.14 270.576 41.16 270.756 41.2V48.24ZM263.336 43.06C263.336 42.74 263.323 42.4367 263.296 42.15C263.27 41.8567 263.21 41.6 263.116 41.38C263.216 41.2867 263.346 41.2133 263.506 41.16C263.673 41.1067 263.836 41.08 263.996 41.08C264.256 41.08 264.44 41.1567 264.546 41.31C264.66 41.4567 264.716 41.6867 264.716 42V47.62C264.716 48.4267 264.82 49.0133 265.026 49.38C265.233 49.74 265.63 49.92 266.216 49.92C266.636 49.92 267.076 49.8233 267.536 49.63C268.003 49.4367 268.433 49.18 268.826 48.86C269.226 48.54 269.536 48.1867 269.756 47.8V49.3C269.33 49.8467 268.763 50.2967 268.056 50.65C267.35 51.0033 266.63 51.18 265.896 51.18C265.263 51.18 264.76 51.04 264.386 50.76C264.013 50.4733 263.743 50.0967 263.576 49.63C263.416 49.1567 263.336 48.64 263.336 48.08V43.06ZM275.014 41.14C275.334 41.14 275.538 41.2233 275.624 41.39C275.711 41.55 275.754 41.7867 275.754 42.1V51C275.574 51.04 275.348 51.06 275.074 51.06C274.788 51.06 274.554 51.04 274.374 51V41.28L274.494 41.14H275.014ZM279.834 44.58C279.834 43.7667 279.731 43.18 279.524 42.82C279.324 42.46 278.968 42.28 278.454 42.28C278.094 42.28 277.708 42.38 277.294 42.58C276.888 42.78 276.501 43.0667 276.134 43.44C275.768 43.8067 275.474 44.24 275.254 44.74V43.16C275.528 42.7133 275.851 42.33 276.224 42.01C276.604 41.69 277.008 41.4467 277.434 41.28C277.861 41.1067 278.288 41.02 278.714 41.02C279.294 41.02 279.768 41.16 280.134 41.44C280.508 41.72 280.781 42.0933 280.954 42.56C281.128 43.0267 281.214 43.54 281.214 44.1V51C281.034 51.04 280.808 51.06 280.534 51.06C280.248 51.06 280.014 51.04 279.834 51V44.58ZM285.314 44.56C285.314 43.7467 285.211 43.1633 285.004 42.81C284.804 42.4567 284.448 42.28 283.934 42.28C283.581 42.28 283.201 42.3733 282.794 42.56C282.388 42.7467 281.998 43.0233 281.624 43.39C281.251 43.7567 280.934 44.2067 280.674 44.74V42.82C281.021 42.46 281.384 42.1467 281.764 41.88C282.144 41.6067 282.538 41.3967 282.944 41.25C283.351 41.0967 283.768 41.02 284.194 41.02C284.774 41.02 285.248 41.16 285.614 41.44C285.981 41.72 286.251 42.0933 286.424 42.56C286.604 43.0267 286.694 43.54 286.694 44.1V49.14C286.694 49.46 286.708 49.7667 286.734 50.06C286.768 50.3467 286.828 50.6 286.914 50.82C286.814 50.9067 286.681 50.9767 286.514 51.03C286.354 51.09 286.194 51.12 286.034 51.12C285.774 51.12 285.588 51.0433 285.474 50.89C285.368 50.7367 285.314 50.5067 285.314 50.2V44.56ZM289.415 48.34C289.415 47.6067 289.572 47.0033 289.885 46.53C290.198 46.0567 290.635 45.7067 291.195 45.48C291.755 45.2533 292.408 45.14 293.155 45.14C293.575 45.14 294.025 45.1633 294.505 45.21C294.992 45.25 295.448 45.3267 295.875 45.44V46.44C295.475 46.3467 295.035 46.2833 294.555 46.25C294.082 46.2167 293.615 46.2 293.155 46.2C292.448 46.2 291.885 46.3767 291.465 46.73C291.045 47.0833 290.835 47.5867 290.835 48.24C290.835 48.74 290.972 49.1667 291.245 49.52C291.525 49.8667 291.928 50.04 292.455 50.04C292.995 50.04 293.575 49.8533 294.195 49.48C294.822 49.1067 295.348 48.54 295.775 47.78L296.015 49.1C295.788 49.3667 295.492 49.6667 295.125 50C294.765 50.3333 294.345 50.6233 293.865 50.87C293.392 51.1167 292.868 51.24 292.295 51.24C291.648 51.24 291.112 51.0967 290.685 50.81C290.258 50.5233 289.938 50.16 289.725 49.72C289.518 49.2733 289.415 48.8133 289.415 48.34ZM297.295 50.42C297.248 50.5467 297.165 50.68 297.045 50.82C296.925 50.96 296.788 51.0667 296.635 51.14C296.322 51.0133 296.075 50.8433 295.895 50.63C295.715 50.4167 295.585 50.17 295.505 49.89C295.432 49.6033 295.395 49.2867 295.395 48.94V44.28C295.395 43.52 295.228 42.9833 294.895 42.67C294.562 42.3567 294.115 42.2 293.555 42.2C293.008 42.2 292.458 42.28 291.905 42.44C291.352 42.6 290.808 42.8 290.275 43.04C290.148 42.9267 290.032 42.7633 289.925 42.55C289.825 42.33 289.775 42.1267 289.775 41.94C290.102 41.7933 290.475 41.65 290.895 41.51C291.322 41.3633 291.772 41.2433 292.245 41.15C292.718 41.05 293.188 41 293.655 41C294.355 41 294.932 41.13 295.385 41.39C295.845 41.6433 296.185 42.0167 296.405 42.51C296.625 43.0033 296.735 43.6067 296.735 44.32V48.44C296.735 48.8667 296.765 49.2433 296.825 49.57C296.892 49.8967 297.048 50.18 297.295 50.42ZM300.874 41.14C301.194 41.14 301.397 41.2233 301.484 41.39C301.57 41.55 301.614 41.7867 301.614 42.1V51C301.434 51.04 301.207 51.06 300.934 51.06C300.647 51.06 300.414 51.04 300.234 51V41.26L300.354 41.14H300.874ZM307.654 49.14C307.654 49.46 307.667 49.7667 307.694 50.06C307.727 50.3467 307.787 50.6 307.874 50.82C307.774 50.9067 307.64 50.9767 307.474 51.03C307.314 51.09 307.154 51.12 306.994 51.12C306.734 51.12 306.547 51.0433 306.434 50.89C306.327 50.7367 306.274 50.5067 306.274 50.2V44.58C306.274 43.7667 306.17 43.18 305.964 42.82C305.764 42.46 305.367 42.28 304.774 42.28C304.354 42.28 303.91 42.3767 303.444 42.57C302.984 42.7633 302.554 43.02 302.154 43.34C301.76 43.66 301.454 44.0133 301.234 44.4V42.9C301.667 42.3467 302.237 41.8967 302.944 41.55C303.65 41.1967 304.367 41.02 305.094 41.02C305.727 41.02 306.23 41.1633 306.604 41.45C306.977 41.73 307.244 42.1067 307.404 42.58C307.57 43.0467 307.654 43.56 307.654 44.12V49.14ZM318.652 46.1C318.652 47.0867 318.495 47.97 318.182 48.75C317.875 49.5233 317.415 50.1333 316.802 50.58C316.189 51.02 315.425 51.24 314.512 51.24C313.599 51.24 312.835 51.0167 312.222 50.57C311.615 50.1167 311.159 49.5033 310.852 48.73C310.545 47.95 310.392 47.0733 310.392 46.1C310.392 45.1133 310.545 44.2333 310.852 43.46C311.165 42.6867 311.629 42.0767 312.242 41.63C312.855 41.1833 313.612 40.96 314.512 40.96C315.432 40.96 316.199 41.1867 316.812 41.64C317.425 42.0867 317.885 42.6967 318.192 43.47C318.499 44.2433 318.652 45.12 318.652 46.1ZM311.832 46.1C311.832 46.7667 311.915 47.41 312.082 48.03C312.249 48.6433 312.529 49.15 312.922 49.55C313.315 49.9433 313.852 50.14 314.532 50.14C315.205 50.14 315.735 49.9433 316.122 49.55C316.515 49.15 316.795 48.6433 316.962 48.03C317.129 47.41 317.212 46.7667 317.212 46.1C317.212 45.44 317.129 44.8 316.962 44.18C316.795 43.5533 316.515 43.04 316.122 42.64C315.735 42.24 315.205 42.04 314.532 42.04C313.852 42.04 313.315 42.24 312.922 42.64C312.529 43.04 312.249 43.5533 312.082 44.18C311.915 44.8 311.832 45.44 311.832 46.1ZM320.463 50.24C320.476 50.0667 320.536 49.88 320.643 49.68C320.756 49.48 320.883 49.3267 321.023 49.22C321.436 49.4467 321.886 49.6567 322.373 49.85C322.86 50.0433 323.356 50.14 323.863 50.14C324.516 50.14 325.04 49.99 325.433 49.69C325.833 49.39 326.036 49.0067 326.043 48.54C326.043 48.2 325.913 47.8833 325.653 47.59C325.4 47.29 325.036 47.0533 324.563 46.88L323.373 46.44C322.92 46.2733 322.496 46.07 322.103 45.83C321.716 45.5833 321.403 45.2867 321.163 44.94C320.93 44.5867 320.813 44.1667 320.813 43.68C320.813 43.1133 320.963 42.6267 321.263 42.22C321.57 41.8133 321.973 41.5033 322.473 41.29C322.98 41.07 323.533 40.96 324.133 40.96C324.626 40.96 325.15 41.0233 325.703 41.15C326.256 41.27 326.733 41.42 327.133 41.6C327.133 41.7867 327.093 41.9833 327.013 42.19C326.94 42.39 326.833 42.56 326.693 42.7C326.386 42.56 326.003 42.4267 325.543 42.3C325.09 42.1667 324.606 42.1 324.093 42.1C323.553 42.1 323.11 42.2367 322.763 42.51C322.423 42.7767 322.253 43.14 322.253 43.6C322.253 43.9467 322.383 44.2367 322.643 44.47C322.903 44.6967 323.286 44.9067 323.793 45.1L325.023 45.56C325.763 45.8333 326.356 46.2033 326.803 46.67C327.256 47.13 327.483 47.72 327.483 48.44C327.483 49.32 327.136 50.0067 326.443 50.5C325.756 50.9933 324.883 51.24 323.823 51.24C323.123 51.24 322.49 51.14 321.923 50.94C321.363 50.7333 320.876 50.5 320.463 50.24Z" fill="#F4EDF4"/>
</svg>
