<svg width="68" height="68" viewBox="0 0 68 68" fill="none" xmlns="http://www.w3.org/2000/svg">
<path d="M33.9994 0.666504C15.5994 0.666504 0.666016 15.5998 0.666016 33.9998C0.666016 52.3998 15.5994 67.3332 33.9994 67.3332C52.3994 67.3332 67.3327 52.3998 67.3327 33.9998C67.3327 15.5998 52.3994 0.666504 33.9994 0.666504ZM33.9994 60.6665C19.2994 60.6665 7.33268 48.6998 7.33268 33.9998C7.33268 19.2998 19.2994 7.33317 33.9994 7.33317C48.6994 7.33317 60.666 19.2998 60.666 33.9998C60.666 48.6998 48.6994 60.6665 33.9994 60.6665ZM36.966 30.9998C31.0327 29.0332 28.166 27.7998 28.166 24.6665C28.166 21.2665 31.866 20.0332 34.1994 20.0332C38.566 20.0332 40.166 23.3332 40.5327 24.4998L45.7994 22.2665C45.2994 20.7998 43.066 15.8998 36.9327 14.8332V10.6665H31.0994V14.8665C22.4327 16.7332 22.366 24.3665 22.366 24.7332C22.366 32.2998 29.866 34.4332 33.5327 35.7665C38.7994 37.6332 41.1327 39.3332 41.1327 42.5332C41.1327 46.2998 37.6327 47.8998 34.5327 47.8998C28.466 47.8998 26.7327 41.6665 26.5327 40.9332L20.9994 43.1665C23.0994 50.4665 28.5994 52.4332 31.066 53.0332V57.3332H36.8994V53.1998C38.6327 52.8998 46.966 51.2332 46.966 42.4665C46.9994 37.8332 44.966 33.7665 36.966 30.9998Z" fill="#F7A70B"/>
</svg>
