<svg width="51" height="49" viewBox="0 0 51 49" fill="none" xmlns="http://www.w3.org/2000/svg">
<path d="M33.5669 25.458C39.6877 20.1899 45.4337 15.7524 45.4337 11.4809C45.4337 8.01633 42.5607 5.28735 38.9132 5.28735C36.8647 5.28735 34.866 6.21283 33.5669 7.63665C32.2928 6.21283 30.2942 5.28735 28.2207 5.28735C24.5732 5.28735 21.7002 8.01633 21.7002 11.4809C21.7002 15.7287 27.4462 20.1899 33.5669 25.458ZM28.2207 8.84689C29.12 8.84689 30.1193 9.27403 30.7189 9.93848L33.5669 13.0946L36.415 9.93848C37.0146 9.27403 37.9889 8.84689 38.9132 8.84689C40.4871 8.84689 41.6863 9.98594 41.6863 11.4809C41.6863 13.6167 37.5142 17.2948 33.5669 20.6645C29.6197 17.2948 25.4476 13.5929 25.4476 11.4809C25.4476 9.98594 26.6468 8.84689 28.2207 8.84689Z" fill="#702283"/>
<path d="M37.9391 31.3905H35.4408C35.4408 29.2548 34.0168 27.3564 31.9182 26.6445L17.953 21.8984H2.96338V43.2556H15.4547V40.4555L29.1951 44.4422L45.4338 39.6961V38.5096C45.4338 34.5704 42.0862 31.3905 37.9391 31.3905ZM11.7073 39.3639V39.6961H6.71077V25.458H11.7073V39.3639ZM29.1951 40.7165L15.4547 36.7298V25.458H17.3034L30.6441 29.9904C31.2687 30.204 31.6934 30.7735 31.6934 31.3905H25.7975L21.1258 29.7294L19.8017 33.0516L24.7982 34.9501H37.9391C39.488 34.9501 40.837 35.8518 41.4116 37.157L29.1951 40.7165Z" fill="#702283"/>
</svg>
